<?xml version="1.0" encoding="utf-8"?>
<!-- Generator: Adobe Illustrator 16.0.3, SVG Export Plug-In . SVG Version: 6.00 Build 0)  -->
<!DOCTYPE svg PUBLIC "-//W3C//DTD SVG 1.1//EN" "http://www.w3.org/Graphics/SVG/1.1/DTD/svg11.dtd">
<svg version="1.1" id="Warstwa_1" xmlns="http://www.w3.org/2000/svg" xmlns:xlink="http://www.w3.org/1999/xlink" x="0px" y="0px"
	 width="360px" height="134px" viewBox="0 0 360 134" enable-background="new 0 0 360 134" xml:space="preserve">
<g>
	<g opacity="0.5">
		<path fill-rule="evenodd" clip-rule="evenodd" d="M59.427,61.412c0.045,0.021,0.089,0.042,0.141,0.064
			C59.478,61.385,59.436,61.379,59.427,61.412z"/>
		<path fill-rule="evenodd" clip-rule="evenodd" d="M61.197,62.318C60.886,62.101,61,62.543,61.197,62.318L61.197,62.318z"/>
		<path fill-rule="evenodd" clip-rule="evenodd" d="M40.418,2C19.199,2,2,19.239,2,40.508c0,21.268,17.199,38.506,38.418,38.506
			c21.218,0,38.419-17.238,38.419-38.506C78.837,19.239,61.637,2,40.418,2z M31.141,69.031c2.25,1.304,1.604,5.668-0.586,6.64
			c0.396-0.416,0.627-1.204,0.353-1.947c-0.542,1.11-1.837,2.19-3.518,1.489c0.979-0.113,1.79-0.392,1.994-1.259
			c-1.068,0.922-3.036,0.502-3.634-0.572c0.719,0.245,2.149,0.221,2.579-0.688c-1.504,0.132-2.352-0.375-2.227-1.832
			c1.517,1.957,2.833-1.544,1.405-2.521c-0.019-0.705-0.029-1.402,0.352-1.72c-0.124-1.448,0.211-2.874,1.054-4.233
			c0.775-1.247,2.527-2.099,2.344-3.78c-0.167-1.559-1.049-2.808-1.17-4.466c-0.434-5.809,2.412-10.382,4.688-13.975
			c0.668-1.055,2.23-3.062,1.875-4.352c-0.24-0.859-1.549-0.873-2.227-1.372c-1.148-0.849-1.778-3.082-0.939-5.154
			c-0.532,0.292-1.11,0.26-1.524,0.458c-1.915,0.917-1.863,3.716-4.687,3.551c-0.327-0.276,1.074-0.762,0.937-1.604
			c-0.654,0.156-2.433,0.692-3.047-0.229c1.148-0.178,2.066-0.579,2.463-1.488c-0.737-0.054-2.231-0.125-2.345-1.146
			c0.893,0.203,2.255-0.048,3.165-0.457c-0.752-0.297-1.499-0.599-1.641-1.49c0.648,0.694,3.129,0.714,4.102,0.344
			c0.767-0.292,1.361-1.35,2.344-1.029c0.59-0.114,0.573-0.816,1.171-0.918c1.312,0.387,1.541,1.892,2.227,2.864
			c0.715,1.017,1.554,1.842,2.46,2.634c0.802-1.015,0.858-2.117,1.522-3.092c1.702-2.494,4.903-4.064,5.509-7.214
			c0.561-2.921-2.009-6.398-3.752-8.017c-2.302-2.147-5.922-3.644-9.256-3.896c-9.094-0.685-13.162,5.807-16.29,10.88
			c-0.156,0.024-0.216,0.477-0.233,0c1.444-3.158,3.126-5.925,5.625-8.244c2.698-2.506,6.426-4.539,11.134-4.353
			c2.402,0.095,4.812,1.076,6.678,2.062c5.11,2.696,9.673,7.112,9.138,15.459c-1.023,16.134-16.592,20.929-14.059,39.281
			C31.447,62.752,30.296,65.811,31.141,69.031z M61.141,41.543c-0.845,0.573-2.171-0.081-3.045-0.458
			c0.392,0.878,1.205,1.342,2.108,1.718c-1.503,0.399-2.642-0.148-3.517-1.145c-1.108-1.259-0.703-3.677-2.226-3.894
			c-1.972-0.28-1.485,2.366-2.697,3.092c-3.8-1.413-6.777,6.121-5.271,9.275c2.999,0.621,3.771-3.896,5.505-3.894
			c0.938,0.002,1.225,1.241,1.875,2.176c0.396,0.565,1.132,0.989,1.523,1.604c0.842,1.322,0.5,4.568,1.711,5.08
			c-1.117,0.138-1.012-1.714-1.593-2.102c-0.188,1.329,0.298,1.187,0.542,1.713c-1.275-0.014-1.178,0.057-1.715-0.683
			c-0.051,0.153-0.104,0.249-0.149,0.303c0.02,0.015,0.045,0.033,0.07,0.056c-1.064,0.081-1.002,0.432-1.328-0.588
			c-0.23,0.314-0.543-0.259-0.513-0.372c-0.991-0.472-0.788-0.771-0.425-2.49c-1.855,0.438-4.058,2.157-5.505,4.237
			c-0.979,1.405-3.041,6.725-0.234,7.329c1.212,0.263,1.848-1.185,2.926-0.57c1.194,0.675,3.854,0.495,4.105,1.602
			c0.329,1.453-1.348,2.976-2.579,4.007c-1.871,1.574-4.484,2.514-7.616,1.833c-1.852-0.4-4.62-2.417-5.273-3.778
			c-0.805-1.673-0.73-5.301-0.585-7.56c0.826-13.02,12.961-18.281,14.178-32.294c1.09-12.557-6.619-19.685-18.75-20.613
			c12.645-2.191,22.815,6.891,22.267,19.123c-0.178,3.928-1.36,6.473-2.344,10.08c1.912,1.641,3.161-1.424,5.271-0.917
			c0.204,1.896-0.896,5.262,2.46,4.808c-0.167,0.374-0.566,0.517-1.17,0.46c0.301,0.737,1.06,1.027,1.993,1.147
			c-0.295,0.435-1.136,0.338-1.876,0.34C59.577,40.936,60.332,41.266,61.141,41.543z"/>
		<path d="M105.405,17.526c1.232,0,2.431,0.196,3.601,0.584c1.168,0.392,2.244,0.999,3.229,1.82c1.969-1.604,4.265-2.404,6.89-2.404
			c1.436,0,2.82,0.277,4.153,0.831c1.332,0.556,2.501,1.306,3.506,2.251s1.804,2.076,2.398,3.392
			c0.595,1.316,0.893,2.714,0.893,4.191v15.478c0,0.988-0.411,1.853-1.229,2.592c-0.819,0.738-1.765,1.108-2.831,1.108
			c-1.067,0-1.999-0.399-2.799-1.201c-0.801-0.803-1.2-1.738-1.2-2.807V28.38c0-0.782-0.277-1.44-0.829-1.975
			c-0.556-0.534-1.243-0.803-2.063-0.803c-0.698,0-1.342,0.237-1.938,0.708c-0.596,0.475-0.891,1.163-0.891,2.069v14.981
			c0,1.11-0.401,2.058-1.201,2.836c-0.8,0.781-1.752,1.172-2.86,1.172c-1.024,0-1.948-0.357-2.769-1.079
			c-0.821-0.719-1.229-1.591-1.229-2.621V28.38c-0.043-0.822-0.352-1.492-0.923-2.005c-0.575-0.516-1.21-0.772-1.908-0.772
			c-0.778,0-1.443,0.269-1.999,0.803c-0.553,0.534-0.852,1.213-0.892,2.034v15.293c-0.082,0.986-0.501,1.839-1.26,2.558
			c-0.762,0.722-1.672,1.079-2.739,1.079c-0.575,0-1.108-0.102-1.6-0.308c-0.49-0.205-0.922-0.495-1.292-0.864
			c-0.368-0.369-0.665-0.801-0.892-1.294s-0.318-1.007-0.276-1.542v-15.17c0-1.437,0.287-2.805,0.861-4.099
			c0.573-1.294,1.355-2.426,2.337-3.392c0.984-0.967,2.143-1.737,3.476-2.313C102.463,17.813,103.888,17.526,105.405,17.526z"/>
		<path d="M150.252,17.588c1.846,0.205,3.577,0.738,5.201,1.602c1.616,0.863,3.012,1.965,4.181,3.299
			c1.171,1.336,2.093,2.859,2.77,4.563c0.676,1.706,1.016,3.505,1.016,5.396v10.913c0,1.11-0.411,2.058-1.232,2.836
			c-0.818,0.781-1.742,1.172-2.766,1.172c-1.437,0-2.586-0.656-3.448-1.973c-0.204,0.084-0.388,0.175-0.552,0.275
			c-0.165,0.105-0.327,0.197-0.492,0.278c-0.985,0.454-1.989,0.802-3.016,1.049c-1.065,0.248-2.194,0.37-3.38,0.37
			c-3.076,0-5.825-0.832-8.246-2.497c-2.423-1.664-4.226-3.812-5.412-6.444c-0.413-0.942-0.73-1.909-0.956-2.896
			c-0.229-0.989-0.338-2.015-0.338-3.084s0.109-2.098,0.338-3.084c0.226-0.984,0.543-1.95,0.956-2.897
			c1.187-2.674,2.989-4.83,5.412-6.476c2.421-1.644,5.17-2.465,8.246-2.465c0.326,0,0.621,0,0.889,0S149.967,17.546,150.252,17.588z
			 M148.468,39.353c0.943,0,1.835-0.174,2.677-0.522c0.84-0.349,1.569-0.832,2.183-1.45c0.616-0.616,1.108-1.345,1.479-2.189
			c0.367-0.841,0.552-1.756,0.552-2.742c0-0.904-0.185-1.778-0.552-2.621c-0.371-0.842-0.873-1.582-1.508-2.219
			c-0.637-0.638-1.374-1.142-2.216-1.512c-0.841-0.371-1.712-0.556-2.615-0.556c-0.9,0-1.764,0.185-2.583,0.556
			c-0.819,0.37-1.549,0.874-2.186,1.512c-0.635,0.637-1.135,1.377-1.505,2.219c-0.367,0.843-0.556,1.717-0.556,2.621
			c0,0.945,0.197,1.839,0.587,2.682s0.901,1.571,1.537,2.189c0.636,0.617,1.364,1.108,2.181,1.479
			C146.769,39.168,147.608,39.353,148.468,39.353z"/>
		<path d="M187.103,17.402c1.107,0,2.031,0.42,2.77,1.263c0.739,0.844,1.108,1.739,1.108,2.684c0,1.069-0.402,2.004-1.202,2.806
			c-0.798,0.801-1.69,1.203-2.676,1.203h-10.582c-0.49,0-0.914,0.145-1.262,0.429c-0.347,0.29-0.521,0.701-0.521,1.234
			c0,0.577,0.175,1.018,0.521,1.327c0.348,0.309,0.771,0.462,1.262,0.462h6.954c1.269,0,2.448,0.27,3.534,0.802
			c1.087,0.533,2.032,1.244,2.833,2.127c0.798,0.887,1.426,1.818,1.874,2.805c0.45,0.989,0.677,2.098,0.677,3.33
			c0.041,1.356-0.191,2.633-0.705,3.823c-0.513,1.194-1.2,2.2-2.061,3.022c-0.862,0.822-1.866,1.47-3.014,1.939
			c-1.149,0.477-2.441,0.711-3.881,0.711h-11.316c-1.067,0-1.991-0.37-2.771-1.108c-0.777-0.739-1.167-1.664-1.167-2.775
			c0-1.027,0.367-1.964,1.107-2.807c0.736-0.843,1.639-1.284,2.705-1.326h11.32c1.11,0,1.662-0.491,1.662-1.479
			c0-1.109-0.552-1.664-1.662-1.664h-6.768c-1.228,0-2.39-0.257-3.477-0.772c-1.085-0.511-2.03-1.222-2.826-2.126
			c-0.804-0.902-1.428-1.891-1.877-2.96c-0.452-1.068-0.68-2.219-0.68-3.451c0-1.235,0.238-2.427,0.708-3.577
			c0.471-1.151,1.117-2.158,1.939-3.022c0.817-0.861,1.784-1.551,2.89-2.065c1.109-0.512,2.316-0.791,3.632-0.832H187.103z"/>
		<path d="M200.143,7.969c1.15,0,2.114,0.399,2.891,1.202c0.779,0.8,1.212,1.799,1.295,2.99v4.934h10.579
			c1.19,0,2.156,0.412,2.892,1.231c0.74,0.825,1.109,1.789,1.109,2.898c0,1.071-0.411,2.025-1.23,2.868
			c-0.818,0.843-1.744,1.265-2.771,1.265h-10.579v6.779c0,0.948,0.172,1.844,0.523,2.685c0.348,0.844,0.827,1.593,1.445,2.25
			c0.614,0.659,1.344,1.173,2.185,1.543c0.838,0.369,1.75,0.554,2.739,0.554c1.06,0,1.976-0.142,2.733-0.432
			c0.762-0.285,1.427-0.718,1.999-1.295c0.863-0.74,1.815-1.117,2.862-1.141c1.045-0.021,2.019,0.381,2.922,1.205
			c0.41,0.367,0.718,0.79,0.924,1.262c0.202,0.473,0.316,0.968,0.337,1.48c0.021,0.515-0.053,1.018-0.212,1.512
			c-0.167,0.492-0.436,0.924-0.802,1.294c-1.438,1.397-3.016,2.468-4.739,3.207c-1.719,0.738-3.567,1.108-5.537,1.108
			c-2.129,0-4.141-0.357-6.029-1.079c-1.887-0.719-3.545-1.749-4.981-3.082c-1.434-1.336-2.573-2.938-3.413-4.811
			c-0.839-1.87-1.284-3.955-1.325-6.261V11.852c0-1.108,0.426-2.034,1.266-2.774C198.064,8.336,199.037,7.969,200.143,7.969z"/>
		<path d="M239.827,17.526c1.967,0,3.85,0.409,5.655,1.23c1.804,0.825,3.393,1.925,4.766,3.3c1.376,1.378,2.473,2.96,3.294,4.748
			c0.82,1.788,1.231,3.671,1.231,5.644c0,1.069-0.401,1.911-1.203,2.526c-0.797,0.618-1.796,0.905-2.982,0.865h-16.363
			c1.356,2.344,3.221,3.513,5.603,3.513c0.652,0,1.207-0.061,1.656-0.185c0.452-0.122,0.852-0.266,1.201-0.432
			c0.347-0.163,0.697-0.309,1.045-0.431c0.351-0.122,0.75-0.187,1.2-0.187c0.86,0.042,1.608,0.289,2.243,0.742
			c0.638,0.452,1.109,1.016,1.417,1.695c0.307,0.678,0.409,1.408,0.307,2.189c-0.1,0.781-0.461,1.499-1.074,2.157
			c-1.11,0.903-2.34,1.532-3.693,1.881c-1.354,0.351-2.787,0.544-4.302,0.585c-1.974,0.083-3.856-0.276-5.663-1.079
			c-1.804-0.8-3.396-1.89-4.768-3.269c-1.376-1.375-2.462-2.99-3.262-4.838c-0.798-1.851-1.199-3.763-1.199-5.735
			c0-1.932,0.401-3.803,1.199-5.611c0.8-1.81,1.878-3.402,3.229-4.78c1.354-1.375,2.933-2.475,4.741-3.3
			C235.908,17.936,237.812,17.526,239.827,17.526z M245.423,28.995c-0.699-1.274-1.518-2.168-2.463-2.685
			c-0.942-0.513-1.988-0.77-3.133-0.77c-1.194,0-2.25,0.257-3.171,0.77c-0.925,0.517-1.731,1.41-2.432,2.685H245.423z"/>
		<path d="M261.539,47.432c-1.104,0-2.027-0.361-2.768-1.079c-0.739-0.72-1.15-1.674-1.23-2.867V32.078
			c0.04-1.975,0.461-3.833,1.263-5.581c0.797-1.746,1.863-3.267,3.198-4.563c1.332-1.294,2.891-2.322,4.673-3.083
			c1.789-0.761,3.68-1.182,5.691-1.264c1.148,0,2.101,0.39,2.861,1.169c0.76,0.782,1.181,1.729,1.261,2.838
			c0,1.111-0.389,2.046-1.168,2.807c-0.781,0.763-1.743,1.163-2.892,1.201c-0.941,0-1.826,0.176-2.646,0.525
			c-0.821,0.348-1.538,0.833-2.154,1.449c-0.617,0.614-1.104,1.348-1.477,2.189c-0.367,0.842-0.555,1.755-0.555,2.744v11.222
			c-0.08,1.068-0.479,1.951-1.198,2.65C263.683,47.082,262.729,47.432,261.539,47.432z"/>
		<path d="M293.775,17.588c1.847,0.205,3.58,0.738,5.198,1.602c1.62,0.863,3.016,1.965,4.185,3.299
			c1.169,1.336,2.091,2.859,2.766,4.563c0.677,1.706,1.018,3.505,1.018,5.396v10.913c0,1.11-0.41,2.058-1.23,2.836
			c-0.82,0.781-1.743,1.172-2.77,1.172c-1.438,0-2.585-0.656-3.445-1.973c-0.205,0.084-0.386,0.175-0.557,0.275
			c-0.162,0.105-0.326,0.197-0.486,0.278c-0.986,0.454-1.994,0.802-3.016,1.049c-1.067,0.248-2.195,0.37-3.382,0.37
			c-3.08,0-5.824-0.832-8.244-2.497c-2.425-1.664-4.228-3.812-5.415-6.444c-0.412-0.942-0.731-1.909-0.953-2.896
			c-0.229-0.989-0.342-2.015-0.342-3.084s0.113-2.098,0.342-3.084c0.222-0.984,0.541-1.95,0.953-2.897
			c1.188-2.674,2.99-4.83,5.415-6.476c2.42-1.644,5.164-2.465,8.244-2.465c0.323,0,0.623,0,0.889,0
			C293.209,17.526,293.487,17.546,293.775,17.588z M291.992,39.353c0.942,0,1.836-0.174,2.675-0.522
			c0.841-0.349,1.568-0.832,2.181-1.45c0.619-0.616,1.11-1.345,1.479-2.189c0.369-0.841,0.554-1.756,0.554-2.742
			c0-0.904-0.185-1.778-0.554-2.621c-0.369-0.842-0.873-1.582-1.507-2.219c-0.632-0.638-1.377-1.142-2.215-1.512
			c-0.841-0.371-1.713-0.556-2.613-0.556c-0.904,0-1.764,0.185-2.583,0.556c-0.821,0.37-1.553,0.874-2.187,1.512
			c-0.634,0.637-1.141,1.377-1.508,2.219c-0.37,0.843-0.552,1.717-0.552,2.621c0,0.945,0.19,1.839,0.583,2.682
			c0.39,0.843,0.904,1.571,1.538,2.189c0.637,0.617,1.364,1.108,2.183,1.479C290.289,39.168,291.127,39.353,291.992,39.353z"/>
		<path d="M314.691,8.153c1.107,0,2.039,0.391,2.795,1.171c0.762,0.782,1.185,1.748,1.265,2.897v24.357
			c0,0.821,0.268,1.521,0.803,2.097c0.533,0.576,1.206,0.861,2.027,0.861c1.066,0,2.001,0.371,2.799,1.111
			c0.801,0.739,1.222,1.665,1.261,2.774c0,0.987-0.337,1.861-1.015,2.621c-0.679,0.763-1.55,1.224-2.613,1.388h-0.865
			c-1.436,0-2.783-0.297-4.057-0.895c-1.271-0.596-2.394-1.388-3.353-2.373c-0.962-0.985-1.723-2.139-2.276-3.456
			c-0.555-1.313-0.83-2.689-0.83-4.129V11.976c0.122-1.026,0.555-1.91,1.295-2.651C312.66,8.584,313.584,8.194,314.691,8.153z"/>
		<path d="M332.16,8.029c0.532-0.04,1.049,0.053,1.54,0.278c0.49,0.226,0.933,0.524,1.323,0.896
			c0.387,0.368,0.685,0.809,0.894,1.323c0.202,0.515,0.305,1.037,0.305,1.572v7.091c1.435-0.737,2.921-1.222,4.459-1.448
			c1.542-0.227,3.067-0.227,4.586,0c1.517,0.227,2.991,0.679,4.43,1.357c1.437,0.677,2.768,1.594,3.996,2.743
			c1.437,1.48,2.513,3.074,3.229,4.778c0.719,1.707,1.078,3.649,1.078,5.828c0,2.056-0.399,3.987-1.198,5.796
			c-0.802,1.81-1.878,3.393-3.229,4.747c-1.354,1.356-2.936,2.428-4.739,3.206c-1.804,0.781-3.714,1.172-5.722,1.172
			c-1.967,0-3.856-0.399-5.659-1.201c-1.81-0.803-3.393-1.881-4.766-3.237c-1.376-1.358-2.475-2.939-3.294-4.747
			c-0.818-1.811-1.229-3.722-1.229-5.735V11.791c0-0.493,0.123-0.978,0.372-1.449c0.244-0.472,0.549-0.884,0.921-1.233
			c0.367-0.35,0.789-0.625,1.262-0.833C331.189,8.07,331.672,7.989,332.16,8.029z M336.222,32.448c0,0.945,0.187,1.839,0.554,2.682
			c0.371,0.843,0.87,1.571,1.508,2.189c0.637,0.617,1.361,1.108,2.186,1.479c0.822,0.369,1.703,0.554,2.643,0.554
			c0.9,0,1.775-0.185,2.614-0.554c0.84-0.371,1.58-0.862,2.213-1.479c0.638-0.618,1.143-1.347,1.511-2.189
			c0.371-0.843,0.557-1.736,0.557-2.682c0-0.944-0.186-1.84-0.557-2.682c-0.368-0.842-0.873-1.575-1.511-2.189
			c-0.633-0.616-1.373-1.11-2.213-1.48c-0.839-0.371-1.714-0.556-2.614-0.556c-0.939,0-1.82,0.194-2.643,0.587
			c-0.824,0.391-1.549,0.903-2.186,1.542c-0.638,0.636-1.137,1.377-1.508,2.219C336.408,30.73,336.222,31.585,336.222,32.448z"/>
		<path d="M103.447,57.935c-0.478-0.42-1.02-0.758-1.629-1.017c-0.611-0.258-1.267-0.389-1.968-0.389
			c-0.707,0-1.369,0.136-1.986,0.402c-0.619,0.27-1.161,0.635-1.628,1.103c-0.467,0.466-0.832,1.015-1.1,1.647
			c-0.264,0.625-0.399,1.295-0.399,2c0,0.707,0.135,1.37,0.399,1.989c0.268,0.619,0.633,1.163,1.1,1.631s1.009,0.836,1.628,1.103
			c0.618,0.266,1.28,0.4,1.986,0.4c0.701,0,1.357-0.13,1.968-0.387c0.609-0.258,1.151-0.616,1.629-1.073
			c0.17-0.172,0.379-0.258,0.628-0.258c0.245,0,0.457,0.086,0.626,0.258c0.173,0.172,0.253,0.388,0.244,0.643
			c-0.009,0.259-0.12,0.491-0.329,0.702c-0.17,0.172-0.403,0.369-0.699,0.589c-0.295,0.218-0.648,0.425-1.057,0.613
			c-0.409,0.191-0.865,0.35-1.371,0.473c-0.504,0.125-1.051,0.186-1.639,0.186c-0.954,0-1.843-0.171-2.671-0.514
			c-0.827-0.344-1.556-0.819-2.185-1.433c-0.627-0.61-1.123-1.336-1.484-2.174c-0.36-0.838-0.543-1.755-0.543-2.748
			c0-0.951,0.176-1.845,0.53-2.674c0.35-0.83,0.835-1.555,1.456-2.176c0.616-0.619,1.35-1.116,2.197-1.49
			c0.847-0.37,1.764-0.574,2.754-0.614c0.571,0,1.1,0.071,1.584,0.215c0.486,0.144,0.922,0.314,1.314,0.516
			c0.39,0.201,0.736,0.413,1.042,0.646c0.305,0.229,0.55,0.426,0.743,0.597c0.113,0.099,0.215,0.274,0.299,0.532
			c0.086,0.257,0.025,0.492-0.186,0.702c-0.169,0.17-0.381,0.257-0.626,0.257C103.826,58.191,103.618,58.104,103.447,57.935z"/>
		<path d="M106.3,61.513c0-0.937,0.176-1.818,0.529-2.648c0.353-0.83,0.837-1.561,1.455-2.188c0.62-0.63,1.337-1.127,2.157-1.49
			c0.818-0.36,1.693-0.553,2.625-0.572c0.306,0,0.547,0.087,0.729,0.258c0.18,0.174,0.269,0.382,0.269,0.631
			c0,0.25-0.089,0.456-0.269,0.628c-0.182,0.171-0.423,0.258-0.729,0.258c-0.685,0.019-1.332,0.167-1.941,0.444
			s-1.141,0.646-1.598,1.103c-0.457,0.456-0.813,0.998-1.071,1.616c-0.258,0.619-0.385,1.273-0.385,1.962v6.122
			c0,0.248-0.087,0.457-0.257,0.63c-0.174,0.172-0.381,0.258-0.628,0.258c-0.248,0-0.458-0.086-0.628-0.258
			c-0.172-0.173-0.258-0.382-0.258-0.63V61.513z"/>
		<path d="M114.979,62.453c0.097,0.613,0.295,1.18,0.6,1.704c0.304,0.526,0.682,0.979,1.129,1.359
			c0.445,0.382,0.955,0.683,1.528,0.901c0.569,0.22,1.169,0.329,1.796,0.329c0.704,0,1.361-0.128,1.971-0.386
			c0.61-0.258,1.15-0.615,1.626-1.073c0.17-0.171,0.381-0.259,0.629-0.259c0.246,0,0.456,0.088,0.628,0.259
			c0.169,0.171,0.256,0.382,0.256,0.629c0,0.25-0.087,0.456-0.256,0.63c-0.628,0.707-1.338,1.208-2.127,1.502
			c-0.792,0.298-1.7,0.444-2.728,0.444c-0.951,0-1.841-0.171-2.669-0.517c-0.828-0.342-1.558-0.819-2.183-1.43
			c-0.629-0.61-1.124-1.336-1.485-2.176c-0.362-0.838-0.542-1.753-0.542-2.744c0-0.955,0.173-1.848,0.527-2.677
			c0.351-0.831,0.837-1.557,1.457-2.175c0.617-0.62,1.351-1.116,2.197-1.49c0.848-0.369,1.767-0.576,2.758-0.614
			c0.912,0,1.771,0.183,2.582,0.545c0.808,0.362,1.526,0.848,2.157,1.46c0.627,0.609,1.125,1.325,1.497,2.145
			c0.372,0.82,0.576,1.698,0.613,2.633c0.039,0.324-0.042,0.572-0.241,0.745c-0.201,0.169-0.412,0.255-0.642,0.255H114.979z
			 M120.033,56.475c-0.627,0-1.221,0.109-1.785,0.328c-0.56,0.22-1.064,0.515-1.513,0.887c-0.445,0.374-0.818,0.815-1.113,1.333
			c-0.295,0.513-0.499,1.067-0.614,1.658h10.079c-0.113-0.591-0.323-1.146-0.628-1.658c-0.304-0.518-0.68-0.959-1.127-1.333
			c-0.449-0.372-0.952-0.667-1.513-0.887C121.256,56.584,120.662,56.475,120.033,56.475z"/>
		<path d="M134.992,54.671c0.915,0,1.787,0.187,2.615,0.558c0.826,0.371,1.555,0.875,2.184,1.504s1.125,1.363,1.498,2.204
			c0.37,0.839,0.557,1.735,0.557,2.69v6.035c0,0.25-0.086,0.46-0.258,0.632c-0.17,0.169-0.381,0.256-0.629,0.256
			c-0.245,0-0.453-0.087-0.625-0.256c-0.172-0.172-0.259-0.382-0.259-0.632v-1.745c-0.626,0.706-1.386,1.313-2.269,1.817
			c-0.885,0.507-1.841,0.759-2.87,0.759c-0.95,0-1.842-0.171-2.669-0.517c-0.828-0.342-1.555-0.819-2.184-1.43
			c-0.628-0.61-1.124-1.336-1.486-2.176c-0.362-0.838-0.542-1.753-0.542-2.744c0-0.955,0.175-1.848,0.526-2.677
			c0.353-0.831,0.839-1.557,1.457-2.175c0.619-0.62,1.352-1.116,2.198-1.49C133.083,54.916,134.004,54.709,134.992,54.671z
			 M129.827,61.627c0,0.703,0.132,1.366,0.398,1.986c0.268,0.621,0.631,1.167,1.1,1.631c0.467,0.469,1.007,0.836,1.629,1.104
			c0.616,0.268,1.278,0.399,1.982,0.399c0.687,0,1.334-0.128,1.941-0.386c0.61-0.258,1.145-0.615,1.612-1.073
			c0.466-0.458,0.84-0.998,1.115-1.617s0.432-1.304,0.47-2.044c0-0.707-0.134-1.375-0.399-2.006
			c-0.268-0.627-0.632-1.175-1.101-1.646c-0.465-0.465-1.012-0.834-1.64-1.1c-0.628-0.267-1.295-0.4-1.999-0.4
			s-1.366,0.134-1.982,0.4c-0.622,0.266-1.162,0.635-1.629,1.1c-0.469,0.472-0.832,1.02-1.1,1.646
			C129.959,60.252,129.827,60.92,129.827,61.627z"/>
		<path d="M143.301,51.036c0-0.247,0.088-0.456,0.256-0.63c0.173-0.17,0.382-0.254,0.631-0.254c0.246,0,0.457,0.084,0.628,0.254
			c0.171,0.174,0.256,0.383,0.256,0.63v3.521h6.31c0.303,0,0.548,0.086,0.729,0.257c0.18,0.171,0.27,0.381,0.27,0.63
			c0,0.248-0.09,0.457-0.27,0.631c-0.181,0.169-0.426,0.258-0.729,0.258h-6.31v5.294c0,0.703,0.134,1.366,0.4,1.986
			c0.268,0.621,0.632,1.167,1.098,1.631c0.468,0.469,1.011,0.836,1.625,1.104c0.621,0.268,1.282,0.399,1.988,0.399
			c0.702,0,1.359-0.128,1.97-0.386s1.144-0.615,1.599-1.073c0.153-0.171,0.347-0.271,0.583-0.299
			c0.239-0.03,0.461,0.031,0.674,0.184c0.151,0.154,0.244,0.344,0.283,0.573c0.039,0.229-0.009,0.449-0.14,0.658
			c-0.63,0.668-1.374,1.187-2.23,1.559c-0.853,0.373-1.771,0.56-2.738,0.56c-0.951,0-1.845-0.183-2.684-0.546
			c-0.84-0.36-1.569-0.851-2.184-1.471c-0.62-0.623-1.111-1.351-1.473-2.19c-0.36-0.841-0.542-1.735-0.542-2.688V51.036z"/>
		<path d="M155.948,51.553c0-0.324,0.113-0.602,0.344-0.832c0.226-0.227,0.504-0.342,0.826-0.342c0.324,0,0.602,0.115,0.83,0.342
			c0.228,0.23,0.342,0.508,0.342,0.832s-0.114,0.601-0.342,0.828c-0.229,0.229-0.506,0.346-0.83,0.346
			c-0.322,0-0.601-0.116-0.826-0.346C156.062,52.153,155.948,51.877,155.948,51.553z M156.238,55.502
			c0-0.249,0.082-0.457,0.253-0.631c0.172-0.171,0.38-0.258,0.627-0.258s0.459,0.087,0.628,0.258c0.172,0.174,0.26,0.382,0.26,0.631
			v12.133c0,0.248-0.088,0.457-0.26,0.63c-0.169,0.172-0.381,0.258-0.628,0.258s-0.455-0.086-0.627-0.258
			c-0.171-0.173-0.253-0.382-0.253-0.63V55.502z"/>
		<path d="M159.317,55.931c-0.095-0.229-0.095-0.466,0-0.715c0.096-0.247,0.246-0.42,0.458-0.516
			c0.228-0.097,0.442-0.079,0.644,0.043c0.199,0.124,0.366,0.271,0.497,0.442l3.711,10.13l3.856-10.13
			c0.131-0.208,0.303-0.36,0.513-0.458c0.213-0.095,0.419-0.095,0.63,0c0.225,0.098,0.384,0.258,0.472,0.488
			c0.085,0.229,0.08,0.447-0.017,0.655c-0.018,0.041-0.092,0.237-0.215,0.59c-0.122,0.353-0.352,0.973-0.684,1.861
			c-0.334,0.885-0.79,2.098-1.369,3.632c-0.582,1.536-1.329,3.487-2.24,5.854c-0.079,0.208-0.188,0.382-0.333,0.515
			c-0.14,0.133-0.345,0.2-0.613,0.2c-0.266,0-0.479-0.081-0.641-0.243c-0.162-0.163-0.271-0.319-0.33-0.472
			c-0.798-2.196-1.475-4.046-2.026-5.553c-0.552-1.509-0.999-2.728-1.342-3.663c-0.344-0.935-0.588-1.607-0.742-2.02
			C159.393,56.164,159.317,55.95,159.317,55.931z"/>
		<path d="M171.996,62.453c0.094,0.613,0.292,1.18,0.598,1.704c0.303,0.526,0.68,0.979,1.127,1.359
			c0.448,0.382,0.959,0.683,1.528,0.901c0.571,0.22,1.169,0.329,1.801,0.329c0.702,0,1.359-0.128,1.967-0.386
			c0.612-0.258,1.153-0.615,1.629-1.073c0.173-0.171,0.378-0.259,0.626-0.259c0.249,0,0.46,0.088,0.631,0.259
			c0.173,0.171,0.257,0.382,0.257,0.629c0,0.25-0.084,0.456-0.257,0.63c-0.631,0.707-1.339,1.208-2.128,1.502
			c-0.788,0.298-1.697,0.444-2.725,0.444c-0.952,0-1.843-0.171-2.672-0.517c-0.828-0.342-1.556-0.819-2.185-1.43
			c-0.628-0.61-1.12-1.336-1.483-2.176c-0.361-0.838-0.541-1.753-0.541-2.744c0-0.955,0.174-1.848,0.526-2.677
			c0.35-0.831,0.839-1.557,1.454-2.175c0.619-0.62,1.352-1.116,2.203-1.49c0.843-0.369,1.763-0.576,2.751-0.614
			c0.913,0,1.774,0.183,2.586,0.545c0.805,0.362,1.529,0.848,2.154,1.46c0.627,0.609,1.126,1.325,1.503,2.145
			c0.368,0.82,0.569,1.698,0.611,2.633c0.037,0.324-0.042,0.572-0.243,0.745c-0.201,0.169-0.413,0.255-0.642,0.255H171.996z
			 M177.05,56.475c-0.632,0-1.226,0.109-1.786,0.328c-0.561,0.22-1.066,0.515-1.514,0.887c-0.448,0.374-0.819,0.815-1.112,1.333
			c-0.298,0.513-0.502,1.067-0.615,1.658h10.076c-0.111-0.591-0.321-1.146-0.623-1.658c-0.307-0.518-0.682-0.959-1.128-1.333
			c-0.451-0.372-0.953-0.667-1.517-0.887C178.271,56.584,177.678,56.475,177.05,56.475z"/>
		<path d="M95.861,74.9c0-0.086,0.029-0.157,0.087-0.217c0.059-0.059,0.131-0.088,0.216-0.088c0.084,0,0.157,0.029,0.216,0.088
			c0.059,0.06,0.087,0.131,0.087,0.217v2.849c0,0.139,0.027,0.267,0.079,0.388c0.051,0.123,0.123,0.229,0.211,0.319
			c0.089,0.094,0.193,0.164,0.314,0.216c0.122,0.053,0.249,0.079,0.386,0.079c0.138,0,0.266-0.026,0.388-0.079
			c0.121-0.052,0.227-0.122,0.318-0.216c0.092-0.09,0.162-0.196,0.216-0.319c0.052-0.121,0.078-0.249,0.078-0.388V74.9
			c0-0.086,0.029-0.157,0.088-0.217c0.059-0.059,0.13-0.088,0.217-0.088c0.083,0,0.156,0.029,0.213,0.088
			c0.061,0.06,0.09,0.131,0.09,0.217v2.849c0,0.224-0.044,0.433-0.126,0.629c-0.087,0.195-0.201,0.368-0.345,0.512
			c-0.143,0.143-0.314,0.257-0.509,0.345c-0.195,0.084-0.405,0.126-0.628,0.126c-0.273,0-0.522-0.061-0.743-0.183
			c-0.223-0.119-0.409-0.283-0.56-0.486c-0.145,0.203-0.327,0.367-0.548,0.486c-0.224,0.122-0.471,0.183-0.746,0.183
			c-0.222,0-0.43-0.042-0.628-0.126c-0.195-0.088-0.366-0.202-0.509-0.345c-0.144-0.144-0.256-0.316-0.338-0.512
			c-0.083-0.196-0.124-0.405-0.124-0.629V74.9c0-0.086,0.029-0.157,0.09-0.217c0.058-0.059,0.13-0.088,0.214-0.088
			c0.084,0,0.158,0.029,0.217,0.088c0.059,0.06,0.087,0.131,0.087,0.217v2.849c0,0.139,0.027,0.267,0.079,0.388
			c0.052,0.123,0.122,0.229,0.21,0.319c0.089,0.094,0.194,0.164,0.313,0.216c0.123,0.053,0.25,0.079,0.388,0.079
			c0.269,0,0.498-0.095,0.691-0.286c0.193-0.187,0.294-0.428,0.309-0.716V74.9z"/>
		<path d="M102.25,74.9c0-0.086,0.031-0.157,0.09-0.217c0.057-0.059,0.13-0.088,0.215-0.088c0.084,0,0.156,0.029,0.215,0.088
			c0.06,0.06,0.088,0.131,0.088,0.217v2.849c0,0.139,0.024,0.267,0.077,0.388c0.051,0.123,0.125,0.229,0.212,0.319
			c0.087,0.094,0.191,0.164,0.313,0.216c0.12,0.053,0.25,0.079,0.388,0.079c0.136,0,0.265-0.026,0.386-0.079
			c0.121-0.052,0.228-0.122,0.32-0.216c0.092-0.09,0.162-0.196,0.215-0.319c0.053-0.121,0.078-0.249,0.078-0.388V74.9
			c0-0.086,0.03-0.157,0.088-0.217c0.059-0.059,0.129-0.088,0.216-0.088c0.085,0,0.155,0.029,0.215,0.088
			c0.06,0.06,0.087,0.131,0.087,0.217v2.849c0,0.224-0.041,0.433-0.126,0.629c-0.086,0.195-0.199,0.368-0.344,0.512
			c-0.145,0.143-0.313,0.257-0.509,0.345c-0.196,0.084-0.405,0.126-0.627,0.126c-0.275,0-0.523-0.061-0.745-0.183
			c-0.222-0.119-0.409-0.283-0.561-0.486c-0.143,0.203-0.325,0.367-0.546,0.486c-0.223,0.122-0.471,0.183-0.745,0.183
			c-0.222,0-0.431-0.042-0.626-0.126c-0.197-0.088-0.368-0.202-0.511-0.345c-0.144-0.144-0.256-0.316-0.339-0.512
			c-0.081-0.196-0.121-0.405-0.121-0.629V74.9c0-0.086,0.028-0.157,0.087-0.217c0.059-0.059,0.13-0.088,0.216-0.088
			c0.085,0,0.157,0.029,0.218,0.088c0.056,0.06,0.085,0.131,0.085,0.217v2.849c0,0.139,0.028,0.267,0.081,0.388
			c0.051,0.123,0.122,0.229,0.209,0.319c0.087,0.094,0.195,0.164,0.313,0.216c0.124,0.053,0.252,0.079,0.389,0.079
			c0.266,0,0.498-0.095,0.692-0.286c0.191-0.187,0.295-0.428,0.307-0.716V74.9z"/>
		<path d="M108.64,74.9c0-0.086,0.028-0.157,0.089-0.217c0.058-0.059,0.13-0.088,0.215-0.088c0.085,0,0.158,0.029,0.215,0.088
			c0.061,0.06,0.089,0.131,0.089,0.217v2.849c0,0.139,0.026,0.267,0.078,0.388c0.051,0.123,0.122,0.229,0.21,0.319
			c0.088,0.094,0.193,0.164,0.314,0.216c0.121,0.053,0.251,0.079,0.389,0.079c0.135,0,0.263-0.026,0.385-0.079
			c0.122-0.052,0.228-0.122,0.319-0.216c0.091-0.09,0.163-0.196,0.214-0.319c0.053-0.121,0.081-0.249,0.081-0.388V74.9
			c0-0.086,0.029-0.157,0.087-0.217c0.058-0.059,0.131-0.088,0.217-0.088c0.084,0,0.157,0.029,0.214,0.088
			c0.058,0.06,0.087,0.131,0.087,0.217v2.849c0,0.224-0.041,0.433-0.126,0.629c-0.085,0.195-0.2,0.368-0.344,0.512
			c-0.141,0.143-0.313,0.257-0.508,0.345c-0.198,0.084-0.407,0.126-0.627,0.126c-0.276,0-0.524-0.061-0.746-0.183
			c-0.222-0.119-0.41-0.283-0.561-0.486c-0.142,0.203-0.325,0.367-0.549,0.486c-0.22,0.122-0.468,0.183-0.743,0.183
			c-0.223,0-0.432-0.042-0.626-0.126c-0.196-0.088-0.367-0.202-0.51-0.345c-0.145-0.144-0.257-0.316-0.341-0.512
			c-0.079-0.196-0.121-0.405-0.121-0.629V74.9c0-0.086,0.028-0.157,0.087-0.217c0.06-0.059,0.131-0.088,0.218-0.088
			c0.083,0,0.156,0.029,0.214,0.088c0.057,0.06,0.087,0.131,0.087,0.217v2.849c0,0.139,0.028,0.267,0.079,0.388
			c0.053,0.123,0.121,0.229,0.211,0.319c0.088,0.094,0.192,0.164,0.313,0.216c0.122,0.053,0.25,0.079,0.387,0.079
			c0.266,0,0.498-0.095,0.691-0.286c0.192-0.187,0.295-0.428,0.308-0.716V74.9z"/>
		<path d="M112.033,78.957c0-0.11,0.037-0.206,0.115-0.285c0.081-0.078,0.175-0.116,0.283-0.116c0.111,0,0.207,0.038,0.288,0.116
			c0.079,0.079,0.116,0.175,0.116,0.285s-0.038,0.207-0.116,0.286c-0.081,0.078-0.176,0.117-0.288,0.117
			c-0.108,0-0.203-0.039-0.283-0.117C112.07,79.164,112.033,79.067,112.033,78.957z"/>
		<path d="M115.952,76.208c-0.012-0.29-0.117-0.528-0.309-0.719c-0.192-0.188-0.424-0.284-0.693-0.284
			c-0.134,0-0.265,0.025-0.385,0.076c-0.121,0.055-0.226,0.127-0.315,0.219c-0.086,0.092-0.158,0.199-0.21,0.319
			c-0.052,0.12-0.079,0.249-0.079,0.389v2.847c0,0.086-0.028,0.158-0.088,0.218c-0.059,0.057-0.13,0.088-0.212,0.088
			c-0.086,0-0.159-0.031-0.219-0.088c-0.056-0.06-0.086-0.132-0.086-0.218v-2.847c0-0.225,0.041-0.434,0.121-0.631
			c0.081-0.195,0.196-0.366,0.338-0.51c0.146-0.144,0.314-0.258,0.509-0.343c0.197-0.086,0.406-0.129,0.627-0.129
			c0.275,0,0.525,0.061,0.746,0.183c0.223,0.12,0.404,0.283,0.548,0.485c0.15-0.202,0.338-0.365,0.559-0.485
			c0.223-0.122,0.471-0.183,0.746-0.183c0.223,0,0.431,0.043,0.626,0.129c0.196,0.085,0.366,0.199,0.51,0.343
			c0.145,0.144,0.257,0.314,0.343,0.51c0.085,0.197,0.128,0.406,0.128,0.631v2.847c0,0.086-0.03,0.158-0.09,0.218
			c-0.058,0.057-0.129,0.088-0.213,0.088c-0.085,0-0.156-0.031-0.216-0.088c-0.06-0.06-0.089-0.132-0.089-0.218v-2.847
			c0-0.14-0.027-0.269-0.078-0.389c-0.053-0.12-0.124-0.228-0.214-0.319c-0.093-0.092-0.197-0.164-0.32-0.219
			c-0.12-0.051-0.251-0.076-0.387-0.076c-0.139,0-0.267,0.025-0.388,0.076c-0.122,0.055-0.225,0.127-0.313,0.219
			c-0.088,0.092-0.159,0.199-0.209,0.319c-0.054,0.12-0.079,0.249-0.079,0.389v2.847c0,0.086-0.03,0.158-0.09,0.218
			c-0.059,0.057-0.13,0.088-0.214,0.088c-0.086,0-0.158-0.031-0.215-0.088c-0.06-0.06-0.089-0.132-0.089-0.218V76.208z"/>
		<path d="M122.049,74.604c0.313,0,0.614,0.066,0.896,0.194c0.283,0.127,0.533,0.299,0.75,0.515
			c0.216,0.216,0.386,0.469,0.514,0.756c0.127,0.289,0.192,0.598,0.192,0.924v2.074c0,0.084-0.029,0.156-0.091,0.215
			c-0.057,0.06-0.127,0.09-0.211,0.09c-0.087,0-0.159-0.03-0.217-0.09c-0.057-0.059-0.089-0.131-0.089-0.215v-0.602
			c-0.215,0.242-0.474,0.45-0.778,0.623c-0.305,0.176-0.633,0.262-0.985,0.262c-0.328,0-0.635-0.06-0.918-0.177
			c-0.285-0.118-0.533-0.281-0.75-0.489c-0.214-0.21-0.386-0.46-0.509-0.747c-0.124-0.287-0.186-0.604-0.186-0.944
			c0-0.326,0.06-0.633,0.18-0.918c0.122-0.285,0.289-0.532,0.502-0.748c0.212-0.212,0.462-0.383,0.754-0.51
			C121.394,74.689,121.708,74.617,122.049,74.604z M120.272,76.992c0,0.241,0.047,0.469,0.139,0.682
			c0.092,0.214,0.217,0.4,0.375,0.56c0.163,0.163,0.349,0.288,0.561,0.381c0.213,0.091,0.438,0.137,0.682,0.137
			c0.233,0,0.456-0.044,0.666-0.131c0.207-0.089,0.393-0.214,0.553-0.37c0.16-0.157,0.288-0.342,0.382-0.555
			c0.096-0.213,0.15-0.446,0.162-0.703c0-0.242-0.045-0.47-0.138-0.687c-0.09-0.216-0.216-0.405-0.376-0.565
			c-0.161-0.161-0.348-0.285-0.563-0.376c-0.215-0.093-0.444-0.14-0.686-0.14c-0.243,0-0.469,0.047-0.682,0.14
			c-0.212,0.091-0.398,0.215-0.561,0.376c-0.158,0.16-0.284,0.35-0.375,0.565C120.319,76.522,120.272,76.75,120.272,76.992z"/>
		<path d="M124.988,79.055c0-0.083,0.03-0.157,0.088-0.214c0.059-0.06,0.131-0.09,0.217-0.09h2.118c0.188,0,0.353-0.067,0.488-0.206
			c0.138-0.139,0.208-0.302,0.208-0.492c0-0.189-0.07-0.354-0.208-0.49c-0.135-0.138-0.3-0.207-0.488-0.207h-1.149
			c-0.188,0-0.366-0.036-0.534-0.106c-0.168-0.072-0.311-0.171-0.435-0.297c-0.125-0.123-0.223-0.269-0.294-0.436
			c-0.073-0.167-0.107-0.346-0.107-0.536s0.035-0.368,0.107-0.54c0.071-0.169,0.169-0.317,0.294-0.442
			c0.124-0.124,0.267-0.222,0.435-0.293c0.168-0.074,0.346-0.109,0.534-0.109h2c0.085,0,0.159,0.029,0.217,0.088
			c0.057,0.06,0.086,0.131,0.086,0.217c0,0.084-0.03,0.157-0.086,0.215c-0.059,0.059-0.132,0.09-0.217,0.09h-2
			c-0.21,0.006-0.388,0.084-0.539,0.235c-0.15,0.151-0.226,0.331-0.226,0.54s0.076,0.391,0.226,0.542
			c0.151,0.148,0.329,0.226,0.539,0.226h1.149c0.175,0,0.343,0.033,0.503,0.102c0.159,0.07,0.3,0.164,0.417,0.281
			c0.119,0.118,0.211,0.257,0.28,0.416c0.069,0.163,0.103,0.33,0.103,0.506c0,0.177-0.034,0.348-0.103,0.507
			s-0.161,0.299-0.28,0.418c-0.117,0.118-0.257,0.213-0.417,0.279c-0.16,0.068-0.328,0.104-0.503,0.104h-2.118
			c-0.086,0-0.158-0.031-0.217-0.088C125.018,79.213,124.988,79.141,124.988,79.055z"/>
		<path d="M129.205,73.31c0-0.083,0.027-0.158,0.085-0.216c0.059-0.06,0.13-0.091,0.215-0.091c0.085,0,0.157,0.031,0.217,0.091
			c0.058,0.058,0.088,0.133,0.088,0.216v1.257h2.167c0.103,0,0.188,0.029,0.248,0.09c0.062,0.057,0.094,0.131,0.094,0.214
			c0,0.085-0.032,0.156-0.094,0.218c-0.06,0.058-0.146,0.086-0.248,0.086h-2.167v1.818c0,0.241,0.044,0.469,0.137,0.682
			c0.09,0.214,0.214,0.4,0.377,0.56c0.158,0.163,0.346,0.288,0.558,0.381c0.213,0.091,0.44,0.137,0.681,0.137
			c0.243,0,0.469-0.044,0.676-0.131c0.21-0.089,0.393-0.214,0.55-0.37c0.053-0.06,0.118-0.093,0.198-0.104
			c0.083-0.01,0.16,0.011,0.232,0.063c0.054,0.057,0.087,0.12,0.103,0.197c0.012,0.08-0.005,0.155-0.053,0.227
			c-0.217,0.229-0.471,0.408-0.764,0.535c-0.296,0.128-0.609,0.192-0.942,0.192c-0.325,0-0.634-0.062-0.92-0.188
			c-0.287-0.124-0.538-0.293-0.75-0.505c-0.213-0.212-0.38-0.464-0.505-0.753c-0.125-0.285-0.184-0.596-0.184-0.923V73.31z"/>
		<path d="M134.202,77.277c0.03,0.21,0.101,0.403,0.206,0.585c0.101,0.181,0.233,0.334,0.386,0.467
			c0.153,0.13,0.328,0.233,0.523,0.309c0.196,0.075,0.402,0.113,0.617,0.113c0.243,0,0.469-0.044,0.677-0.131
			c0.211-0.089,0.396-0.214,0.559-0.37c0.06-0.06,0.131-0.089,0.217-0.089c0.085,0,0.157,0.029,0.216,0.089
			c0.057,0.06,0.087,0.13,0.087,0.215c0,0.087-0.03,0.159-0.087,0.219c-0.216,0.239-0.46,0.414-0.729,0.514
			c-0.273,0.103-0.585,0.152-0.938,0.152c-0.324,0-0.631-0.06-0.913-0.177c-0.286-0.118-0.537-0.281-0.752-0.489
			c-0.214-0.21-0.386-0.46-0.512-0.747c-0.122-0.287-0.182-0.604-0.182-0.944c0-0.326,0.059-0.633,0.179-0.918
			c0.121-0.285,0.289-0.532,0.501-0.748c0.21-0.212,0.463-0.383,0.753-0.51s0.607-0.199,0.948-0.213c0.313,0,0.607,0.064,0.887,0.19
			c0.275,0.124,0.525,0.291,0.74,0.497c0.213,0.213,0.385,0.458,0.512,0.739c0.131,0.282,0.198,0.583,0.215,0.902
			c0.012,0.113-0.017,0.198-0.084,0.256c-0.072,0.061-0.145,0.089-0.224,0.089H134.202z M135.935,75.225
			c-0.215,0-0.417,0.037-0.611,0.113c-0.192,0.076-0.366,0.175-0.521,0.303c-0.153,0.129-0.281,0.281-0.381,0.457
			c-0.102,0.177-0.172,0.368-0.21,0.57h3.46c-0.038-0.202-0.112-0.394-0.218-0.57c-0.104-0.176-0.233-0.328-0.386-0.457
			c-0.154-0.128-0.327-0.227-0.52-0.303S136.151,75.225,135.935,75.225z"/>
		<path d="M138.728,76.952c0-0.318,0.061-0.622,0.185-0.908c0.119-0.284,0.285-0.535,0.496-0.753
			c0.215-0.214,0.462-0.385,0.741-0.508c0.281-0.125,0.581-0.191,0.901-0.199c0.105,0,0.189,0.031,0.251,0.09
			s0.093,0.132,0.093,0.217c0,0.084-0.031,0.157-0.093,0.218c-0.062,0.057-0.146,0.085-0.251,0.085
			c-0.235,0.008-0.457,0.06-0.665,0.153c-0.208,0.096-0.393,0.222-0.55,0.378c-0.155,0.158-0.28,0.344-0.366,0.556
			c-0.09,0.214-0.135,0.438-0.135,0.672v2.103c0,0.086-0.027,0.158-0.089,0.218c-0.057,0.057-0.129,0.088-0.212,0.088
			c-0.085,0-0.157-0.031-0.219-0.088c-0.057-0.06-0.088-0.132-0.088-0.218V76.952z"/>
		<path d="M143.463,74.604c0.314,0,0.612,0.066,0.896,0.194c0.286,0.127,0.536,0.299,0.748,0.515
			c0.219,0.216,0.391,0.469,0.518,0.756c0.127,0.289,0.188,0.598,0.188,0.924v2.074c0,0.084-0.029,0.156-0.085,0.215
			c-0.061,0.06-0.13,0.09-0.215,0.09c-0.087,0-0.158-0.03-0.218-0.09c-0.062-0.059-0.09-0.131-0.09-0.215v-0.602
			c-0.212,0.242-0.472,0.45-0.779,0.623c-0.3,0.176-0.629,0.262-0.982,0.262c-0.328,0-0.633-0.06-0.916-0.177
			c-0.283-0.118-0.534-0.281-0.75-0.489c-0.216-0.21-0.386-0.46-0.511-0.747s-0.186-0.604-0.186-0.944
			c0-0.326,0.059-0.633,0.183-0.918c0.118-0.285,0.286-0.532,0.498-0.748c0.214-0.212,0.464-0.383,0.756-0.51
			C142.807,74.689,143.124,74.617,143.463,74.604z M141.688,76.992c0,0.241,0.046,0.469,0.141,0.682
			c0.088,0.214,0.215,0.4,0.374,0.56c0.159,0.163,0.348,0.288,0.56,0.381c0.211,0.091,0.438,0.137,0.682,0.137
			c0.233,0,0.458-0.044,0.666-0.131c0.209-0.089,0.394-0.214,0.554-0.37c0.162-0.157,0.287-0.342,0.383-0.555
			c0.094-0.213,0.148-0.446,0.159-0.703c0-0.242-0.045-0.47-0.137-0.687c-0.091-0.216-0.216-0.405-0.377-0.565
			c-0.158-0.161-0.346-0.285-0.563-0.376c-0.214-0.093-0.444-0.14-0.686-0.14c-0.243,0-0.471,0.047-0.682,0.14
			c-0.212,0.091-0.4,0.215-0.56,0.376c-0.159,0.16-0.286,0.35-0.374,0.565C141.733,76.522,141.688,76.75,141.688,76.992z"/>
		<path d="M148.276,79.055c0,0.086-0.031,0.158-0.092,0.218c-0.057,0.057-0.13,0.088-0.214,0.088
			c-0.3-0.008-0.553-0.065-0.754-0.177c-0.205-0.113-0.365-0.248-0.494-0.412c-0.128-0.165-0.222-0.339-0.276-0.521
			c-0.059-0.183-0.082-0.345-0.082-0.49v-4.45c0-0.083,0.026-0.158,0.086-0.216c0.061-0.06,0.13-0.091,0.219-0.091
			c0.084,0,0.155,0.031,0.216,0.091c0.059,0.058,0.087,0.133,0.087,0.216v4.45c0,0.051,0.013,0.13,0.036,0.235
			c0.021,0.104,0.068,0.213,0.141,0.326c0.072,0.108,0.173,0.208,0.304,0.293c0.132,0.085,0.304,0.132,0.519,0.137
			c0.084,0,0.157,0.03,0.214,0.09C148.245,78.897,148.276,78.972,148.276,79.055z"/>
		<path d="M150.951,74.604c0.314,0,0.613,0.066,0.897,0.194c0.284,0.127,0.532,0.299,0.75,0.515
			c0.215,0.216,0.388,0.469,0.512,0.756c0.129,0.289,0.192,0.598,0.192,0.924c0,0.322-0.063,0.624-0.188,0.908
			c-0.122,0.286-0.29,0.536-0.504,0.753c-0.213,0.215-0.462,0.387-0.748,0.511c-0.29,0.124-0.598,0.186-0.932,0.186
			c-0.329,0-0.632-0.06-0.917-0.177c-0.283-0.118-0.534-0.281-0.75-0.489c-0.215-0.21-0.388-0.46-0.513-0.747
			c-0.122-0.287-0.184-0.604-0.184-0.944V73.32c0-0.086,0.027-0.158,0.089-0.219c0.062-0.059,0.131-0.086,0.215-0.086
			c0.087,0,0.157,0.027,0.219,0.086c0.056,0.061,0.087,0.133,0.087,0.219v2.18c0.215-0.236,0.474-0.44,0.773-0.615
			C150.252,74.71,150.584,74.617,150.951,74.604z M149.178,76.992c0,0.241,0.047,0.469,0.135,0.682
			c0.091,0.214,0.219,0.4,0.379,0.56c0.16,0.163,0.345,0.288,0.557,0.381c0.216,0.091,0.44,0.137,0.684,0.137
			c0.242,0,0.471-0.046,0.688-0.137c0.213-0.093,0.4-0.218,0.563-0.381c0.157-0.159,0.282-0.346,0.375-0.56
			c0.093-0.213,0.14-0.44,0.14-0.682c0-0.242-0.047-0.47-0.14-0.687c-0.093-0.216-0.218-0.405-0.375-0.565
			c-0.163-0.161-0.351-0.285-0.563-0.376c-0.217-0.093-0.445-0.14-0.688-0.14c-0.238,0-0.46,0.044-0.668,0.132
			c-0.21,0.09-0.389,0.212-0.547,0.368c-0.157,0.158-0.287,0.344-0.385,0.561C149.236,76.501,149.183,76.739,149.178,76.992z"/>
		<path d="M153.155,78.957c0-0.11,0.04-0.206,0.121-0.285c0.077-0.078,0.171-0.116,0.281-0.116c0.112,0,0.207,0.038,0.284,0.116
			c0.076,0.079,0.117,0.175,0.117,0.285s-0.041,0.207-0.117,0.286c-0.077,0.078-0.172,0.117-0.284,0.117
			c-0.11,0-0.204-0.039-0.281-0.117C153.195,79.164,153.155,79.067,153.155,78.957z"/>
		<path d="M157.97,75.705c-0.166-0.143-0.351-0.259-0.561-0.349c-0.209-0.088-0.436-0.132-0.678-0.132
			c-0.24,0-0.467,0.047-0.68,0.14c-0.216,0.091-0.398,0.215-0.557,0.376c-0.161,0.16-0.286,0.35-0.379,0.565
			c-0.094,0.217-0.14,0.444-0.14,0.687c0,0.241,0.046,0.469,0.14,0.682c0.093,0.214,0.218,0.4,0.379,0.56
			c0.158,0.163,0.341,0.288,0.557,0.381c0.213,0.091,0.439,0.137,0.68,0.137c0.242,0,0.469-0.044,0.678-0.131
			c0.21-0.089,0.395-0.214,0.561-0.37c0.059-0.06,0.128-0.089,0.215-0.089c0.085,0,0.157,0.029,0.214,0.089
			c0.06,0.06,0.088,0.134,0.085,0.222c-0.002,0.088-0.041,0.168-0.112,0.24c-0.06,0.06-0.141,0.126-0.24,0.201
			c-0.101,0.075-0.224,0.146-0.366,0.211c-0.137,0.066-0.295,0.119-0.469,0.163c-0.173,0.04-0.36,0.063-0.564,0.063
			c-0.326,0-0.628-0.06-0.915-0.177c-0.283-0.118-0.534-0.281-0.748-0.489c-0.217-0.21-0.386-0.46-0.512-0.747
			c-0.123-0.287-0.185-0.604-0.185-0.944c0-0.326,0.062-0.633,0.179-0.918c0.124-0.285,0.29-0.532,0.502-0.748
			c0.212-0.212,0.463-0.383,0.754-0.51c0.29-0.127,0.605-0.199,0.946-0.213c0.198,0,0.377,0.026,0.543,0.076
			c0.168,0.049,0.316,0.109,0.45,0.177c0.137,0.068,0.256,0.142,0.359,0.221c0.106,0.078,0.189,0.147,0.256,0.204
			c0.037,0.033,0.073,0.097,0.102,0.184c0.031,0.09,0.007,0.17-0.064,0.24c-0.057,0.061-0.129,0.089-0.214,0.089
			C158.098,75.794,158.028,75.766,157.97,75.705z"/>
		<path d="M161.33,74.604c0.313,0,0.613,0.066,0.896,0.194c0.287,0.127,0.534,0.299,0.75,0.515c0.215,0.216,0.387,0.469,0.514,0.756
			c0.13,0.289,0.193,0.598,0.193,0.924c0,0.322-0.063,0.624-0.188,0.908c-0.122,0.286-0.29,0.536-0.504,0.753
			c-0.213,0.215-0.46,0.387-0.751,0.511c-0.285,0.124-0.598,0.186-0.93,0.186c-0.324,0-0.633-0.06-0.914-0.177
			c-0.285-0.118-0.538-0.281-0.751-0.489c-0.217-0.21-0.387-0.46-0.511-0.747c-0.125-0.287-0.185-0.604-0.185-0.944
			c0-0.326,0.059-0.633,0.182-0.918c0.118-0.285,0.286-0.532,0.496-0.748c0.215-0.212,0.465-0.383,0.758-0.51
			C160.676,74.689,160.99,74.617,161.33,74.604z M159.555,76.992c0,0.241,0.046,0.469,0.138,0.682c0.091,0.214,0.217,0.4,0.378,0.56
			c0.159,0.163,0.349,0.288,0.558,0.381c0.214,0.091,0.44,0.137,0.683,0.137c0.241,0,0.471-0.046,0.686-0.137
			c0.217-0.093,0.401-0.218,0.565-0.381c0.158-0.159,0.286-0.346,0.376-0.56c0.091-0.213,0.136-0.44,0.136-0.682
			c0-0.242-0.045-0.47-0.136-0.687c-0.09-0.216-0.218-0.405-0.376-0.565c-0.164-0.161-0.349-0.285-0.565-0.376
			c-0.215-0.093-0.444-0.14-0.686-0.14c-0.242,0-0.469,0.047-0.683,0.14c-0.209,0.091-0.398,0.215-0.558,0.376
			c-0.161,0.16-0.287,0.35-0.378,0.565C159.601,76.522,159.555,76.75,159.555,76.992z"/>
		<path d="M166.789,76.208c-0.012-0.29-0.115-0.528-0.308-0.719c-0.194-0.188-0.423-0.284-0.693-0.284
			c-0.137,0-0.268,0.025-0.385,0.076c-0.124,0.055-0.226,0.127-0.315,0.219c-0.087,0.092-0.157,0.199-0.209,0.319
			c-0.056,0.12-0.079,0.249-0.079,0.389v2.847c0,0.086-0.029,0.158-0.087,0.218c-0.063,0.057-0.132,0.088-0.217,0.088
			c-0.086,0-0.157-0.031-0.215-0.088c-0.059-0.06-0.092-0.132-0.092-0.218v-2.847c0-0.225,0.043-0.434,0.124-0.631
			c0.083-0.195,0.194-0.366,0.337-0.51c0.146-0.144,0.315-0.258,0.511-0.343c0.198-0.086,0.405-0.129,0.627-0.129
			c0.274,0,0.522,0.061,0.746,0.183c0.223,0.12,0.405,0.283,0.548,0.485c0.152-0.202,0.338-0.365,0.561-0.485
			c0.223-0.122,0.469-0.183,0.741-0.183c0.223,0,0.435,0.043,0.63,0.129c0.197,0.085,0.365,0.199,0.51,0.343
			c0.146,0.144,0.26,0.314,0.343,0.51c0.084,0.197,0.125,0.406,0.125,0.631v2.847c0,0.086-0.029,0.158-0.085,0.218
			c-0.061,0.057-0.132,0.088-0.217,0.088s-0.156-0.031-0.215-0.088c-0.06-0.06-0.09-0.132-0.09-0.218v-2.847
			c0-0.14-0.025-0.269-0.077-0.389c-0.054-0.12-0.125-0.228-0.216-0.319c-0.092-0.092-0.196-0.164-0.317-0.219
			c-0.122-0.051-0.249-0.076-0.391-0.076c-0.135,0-0.265,0.025-0.384,0.076c-0.121,0.055-0.228,0.127-0.313,0.219
			c-0.089,0.092-0.159,0.199-0.212,0.319s-0.078,0.249-0.078,0.389v2.847c0,0.086-0.028,0.158-0.088,0.218
			c-0.06,0.057-0.132,0.088-0.214,0.088c-0.089,0-0.159-0.031-0.218-0.088c-0.058-0.06-0.088-0.132-0.088-0.218V76.208z"/>
	</g>
	<path fill="#464646" d="M40.418,2C19.199,2,2,19.239,2,40.508c0,5.661,1.229,11.031,3.418,15.873
		c-1.712-4.363-2.663-9.11-2.663-14.084C2.755,21.03,19.954,3.79,41.174,3.79c15.57,0,28.967,9.289,35.001,22.635
		C70.564,12.125,56.676,2,40.418,2z M61.896,41.617c-0.933-0.119-1.692-0.408-1.993-1.146c0.604,0.057,1.004-0.086,1.17-0.461
		c-0.07,0.01-0.127,0.008-0.193,0.014c-0.392,0.19-1.029,0.142-1.615,0.144c0.313,0.768,1.067,1.098,1.876,1.375
		c-0.845,0.573-2.171-0.081-3.045-0.458c0.392,0.878,1.205,1.342,2.108,1.718c-0.46,0.122-0.883,0.146-1.277,0.105
		c0.875,0.382,2.146,0.982,2.97,0.426c-0.809-0.278-1.564-0.608-1.876-1.375C60.76,41.957,61.601,42.053,61.896,41.617z
		 M56.946,55.082c-0.932-0.069-0.881-1.721-1.43-2.086c-0.188,1.329,0.298,1.187,0.542,1.713c-1.275-0.014-1.178,0.057-1.715-0.683
		c-0.051,0.153-0.104,0.249-0.149,0.303c0.02,0.015,0.045,0.033,0.07,0.056c-1.064,0.081-1.002,0.432-1.328-0.588
		c-0.132,0.181-0.29,0.065-0.396-0.084c-0.177,0.874-0.121,1.141,0.639,1.502c-0.03,0.113,0.283,0.687,0.514,0.372
		c0.325,1.02,0.262,0.67,1.327,0.589c-0.024-0.023-0.05-0.041-0.07-0.056c0.045-0.055,0.098-0.15,0.149-0.304
		c0.536,0.738,0.439,0.669,1.713,0.683c-0.243-0.526-0.73-0.383-0.541-1.712c0.581,0.386,0.475,2.239,1.592,2.102
		C57.343,56.668,57.11,55.942,56.946,55.082z M129.183,24c-0.595-1.315-1.393-2.446-2.398-3.392s-2.174-1.695-3.506-2.251
		c-1.333-0.554-2.717-0.831-4.153-0.831c-2.625,0-4.92,0.8-6.89,2.404c-0.984-0.821-2.061-1.429-3.229-1.82
		c-1.17-0.388-2.369-0.584-3.601-0.584c-1.517,0-2.942,0.287-4.275,0.862c-1.333,0.575-2.491,1.346-3.476,2.313
		c-0.982,0.966-1.765,2.098-2.337,3.392c-0.574,1.294-0.861,2.662-0.861,4.099v15.17c-0.042,0.535,0.049,1.049,0.276,1.542
		c0.14,0.302,0.314,0.573,0.507,0.83c-0.021-0.192-0.043-0.384-0.028-0.582v-15.17c0-1.437,0.288-2.805,0.862-4.099
		c0.573-1.293,1.355-2.426,2.337-3.391c0.984-0.968,2.143-1.738,3.476-2.313c1.333-0.574,2.758-0.862,4.275-0.862
		c1.232,0,2.431,0.196,3.602,0.585c1.168,0.392,2.244,0.998,3.229,1.82c1.968-1.605,4.264-2.405,6.889-2.405
		c1.436,0,2.82,0.278,4.153,0.831c1.333,0.556,2.501,1.306,3.507,2.251c0.838,0.787,1.522,1.71,2.074,2.754
		C129.492,24.763,129.353,24.376,129.183,24z M27.563,28.676c0,0-0.001,0-0.002-0.001C27.561,28.676,27.562,28.676,27.563,28.676
		C27.562,28.677,27.563,28.677,27.563,28.676z M122.006,28.27c0.001,0.037,0.011,0.071,0.011,0.11v14.981
		c0,0.87,0.278,1.646,0.808,2.339c-0.025-0.181-0.053-0.359-0.053-0.549V30.17C122.771,29.422,122.511,28.791,122.006,28.27z
		 M108.231,28.344c0,0.014,0.004,0.023,0.005,0.036v15.289c0,0.82,0.272,1.537,0.794,2.161c-0.013-0.123-0.039-0.241-0.039-0.37
		V30.17C108.953,29.436,108.691,28.832,108.231,28.344z M104.075,65.087c-0.249,0-0.458,0.086-0.628,0.258
		c-0.478,0.457-1.02,0.815-1.629,1.073c-0.611,0.257-1.267,0.387-1.968,0.387c-0.707,0-1.369-0.135-1.986-0.4
		c-0.619-0.267-1.161-0.635-1.628-1.103s-0.832-1.012-1.1-1.631c-0.05-0.12-0.075-0.25-0.115-0.372
		c0.036,0.581,0.146,1.139,0.368,1.658c0.268,0.619,0.633,1.164,1.1,1.631c0.467,0.468,1.008,0.835,1.628,1.103
		c0.618,0.266,1.28,0.4,1.986,0.4c0.701,0,1.358-0.13,1.968-0.387c0.608-0.259,1.151-0.615,1.628-1.073
		c0.171-0.172,0.38-0.258,0.628-0.258c0.161,0,0.3,0.051,0.429,0.123c0.107-0.158,0.183-0.325,0.19-0.509
		c0.009-0.255-0.071-0.471-0.244-0.643C104.532,65.173,104.32,65.087,104.075,65.087z M56.153,51.809
		c-0.076-0.119-0.172-0.227-0.269-0.333c0.263,1.356,0.342,2.984,1.044,3.514C56.723,53.866,56.62,52.541,56.153,51.809z
		 M26.926,73.494c0.324-0.03,0.646-0.11,0.909-0.27c-0.295,0.029-0.63-0.124-0.977-0.572C26.83,72.983,26.858,73.259,26.926,73.494z
		 M34.423,34.444c-0.176-0.13-0.334-0.301-0.482-0.489c0.177,0.993,0.63,1.831,1.236,2.28c0.379,0.278,0.953,0.409,1.43,0.617
		c0.098-0.371,0.128-0.725,0.042-1.036C36.41,34.957,35.1,34.943,34.423,34.444z M49.94,26.155c0.214-3.343-0.398-6.046-1.526-8.27
		c0.628,1.851,0.93,3.985,0.771,6.479c-1.023,16.134-16.592,20.929-14.059,39.281c-3.679-0.894-4.83,2.165-3.985,5.386
		c0.198,0.114,0.367,0.261,0.521,0.418c-0.22-2.646,1.071-4.778,4.219-4.013C33.348,47.082,48.917,42.288,49.94,26.155z
		 M51.764,40.856c-3.8-1.413-6.777,6.121-5.271,9.275c0.131,0.028,0.253,0.032,0.375,0.042c-0.168-3.544,2.442-8.72,5.651-7.526
		c1.211-0.726,0.724-3.373,2.696-3.093c0.296,0.042,0.503,0.186,0.679,0.369c-0.285-1.032-0.485-2.023-1.434-2.159
		C52.489,37.484,52.976,40.131,51.764,40.856z M50.414,16.718c-1.636-4.621-5.042-7.928-9.748-9.815
		c-2.18-0.388-4.512-0.416-6.94-0.029c0.599,0.045,1.195,0.141,1.783,0.276C42.509,8.148,47.788,11.402,50.414,16.718z
		 M46.493,55.172c-0.887,1.273-2.65,5.748-0.889,7.03c-0.045-1.843,1.018-4.34,1.645-5.239c1.221-1.753,2.976-3.241,4.608-3.931
		c-0.292-0.358-0.12-0.858,0.142-2.098C50.144,51.373,47.941,53.092,46.493,55.172z M134.875,38.428
		c0.098,0.218,0.206,0.43,0.313,0.64c-0.201-0.574-0.38-1.154-0.515-1.745c-0.228-0.988-0.338-2.016-0.338-3.084
		s0.11-2.098,0.338-3.083c0.226-0.985,0.543-1.951,0.956-2.897c1.188-2.674,2.99-4.831,5.413-6.477
		c2.42-1.644,5.169-2.465,8.245-2.465h0.889c0.268,0,0.545,0.02,0.83,0.061c1.847,0.207,3.577,0.739,5.202,1.604
		c1.615,0.863,3.011,1.964,4.182,3.297c0.858,0.982,1.582,2.067,2.176,3.249c-0.057-0.159-0.101-0.318-0.163-0.475
		c-0.677-1.704-1.599-3.228-2.77-4.563c-1.169-1.334-2.564-2.436-4.181-3.299c-1.624-0.863-3.355-1.396-5.201-1.602
		c-0.285-0.042-0.563-0.062-0.83-0.062h-0.889c-3.076,0-5.825,0.821-8.246,2.465c-2.423,1.646-4.226,3.802-5.412,6.476
		c-0.413,0.947-0.73,1.913-0.956,2.897c-0.229,0.986-0.338,2.015-0.338,3.084s0.109,2.095,0.338,3.084
		C134.145,36.519,134.462,37.485,134.875,38.428z M244.865,28.995h-8.582c-0.47,0.478-0.906,1.066-1.305,1.79h11.199
		C245.78,30.062,245.34,29.473,244.865,28.995z M221.737,37.506c-0.903-0.824-1.877-1.226-2.922-1.205
		c-1.047,0.023-1.999,0.4-2.862,1.141c-0.572,0.577-1.237,1.01-1.999,1.295c-0.758,0.29-1.674,0.432-2.733,0.432
		c-0.989,0-1.901-0.185-2.739-0.554c-0.841-0.37-1.57-0.884-2.185-1.543c-0.391-0.414-0.704-0.877-0.985-1.366
		c0.079,0.308,0.173,0.611,0.296,0.906c0.347,0.845,0.826,1.594,1.444,2.25c0.614,0.658,1.345,1.173,2.186,1.544
		c0.838,0.367,1.749,0.553,2.738,0.553c1.061,0,1.977-0.142,2.735-0.431c0.76-0.286,1.425-0.719,1.997-1.297
		c0.863-0.738,1.815-1.117,2.863-1.14c1.044-0.021,2.018,0.382,2.922,1.205c0.169,0.151,0.31,0.318,0.443,0.487
		c-0.054-0.347-0.135-0.688-0.275-1.016C222.455,38.296,222.147,37.873,221.737,37.506z M247.173,38.861
		c-0.635-0.453-1.383-0.7-2.243-0.742c-0.45,0-0.85,0.064-1.2,0.187c-0.348,0.122-0.698,0.268-1.045,0.431
		c-0.35,0.166-0.749,0.31-1.201,0.432c-0.449,0.124-1.004,0.185-1.656,0.185c-1.662,0-3.065-0.583-4.227-1.722h-0.622
		c1.358,2.343,3.222,3.513,5.604,3.513c0.653,0,1.208-0.061,1.656-0.186c0.452-0.122,0.852-0.266,1.201-0.431
		c0.347-0.164,0.698-0.311,1.045-0.432c0.352-0.122,0.751-0.186,1.201-0.186c0.86,0.041,1.607,0.287,2.243,0.74
		c0.385,0.273,0.7,0.592,0.965,0.945c-0.053-0.358-0.152-0.706-0.304-1.039C248.282,39.877,247.811,39.313,247.173,38.861z
		 M298.684,30.894c0.126,0.508,0.197,1.026,0.197,1.555c0,0.986-0.185,1.901-0.554,2.742c-0.369,0.845-0.86,1.573-1.479,2.189
		c-0.612,0.618-1.34,1.102-2.181,1.45c-0.839,0.349-1.732,0.522-2.675,0.522c-0.865,0-1.703-0.185-2.525-0.554
		c-0.818-0.371-1.546-0.862-2.183-1.479c-0.472-0.458-0.851-0.999-1.189-1.581c0.098,0.404,0.229,0.8,0.406,1.183
		c0.391,0.843,0.905,1.571,1.538,2.188c0.638,0.618,1.364,1.107,2.184,1.48c0.822,0.368,1.66,0.554,2.525,0.554
		c0.942,0,1.834-0.175,2.674-0.523c0.841-0.349,1.568-0.832,2.183-1.449c0.617-0.618,1.109-1.347,1.479-2.189
		c0.369-0.841,0.553-1.757,0.553-2.743c0-0.903-0.184-1.777-0.553-2.621C298.969,31.36,298.82,31.132,298.684,30.894z
		 M349.807,30.836c0.126,0.521,0.199,1.058,0.199,1.612c0,0.945-0.186,1.839-0.557,2.682c-0.368,0.843-0.873,1.571-1.511,2.189
		c-0.633,0.617-1.373,1.108-2.213,1.479c-0.839,0.369-1.714,0.554-2.614,0.554c-0.939,0-1.82-0.185-2.643-0.554
		c-0.824-0.371-1.549-0.862-2.186-1.479c-0.441-0.427-0.793-0.929-1.105-1.463c0.09,0.363,0.203,0.718,0.354,1.064
		c0.37,0.843,0.871,1.571,1.507,2.188c0.637,0.618,1.361,1.107,2.187,1.48c0.82,0.368,1.702,0.554,2.642,0.554
		c0.902,0,1.775-0.186,2.615-0.554c0.84-0.373,1.579-0.862,2.213-1.48c0.637-0.617,1.142-1.346,1.51-2.188
		c0.37-0.843,0.557-1.738,0.557-2.683c0-0.943-0.187-1.84-0.557-2.683C350.093,31.3,349.943,31.073,349.807,30.836z M321.581,39.537
		c-0.821,0-1.494-0.285-2.027-0.861c-0.009-0.01-0.015-0.021-0.023-0.03c0.055,0.7,0.307,1.312,0.778,1.821
		c0.533,0.575,1.206,0.861,2.028,0.861c1.065,0,2,0.37,2.799,1.11c0.167,0.154,0.308,0.322,0.443,0.493
		c-0.134-0.891-0.522-1.658-1.199-2.283C323.582,39.908,322.647,39.537,321.581,39.537z M356.922,26.62
		c-0.717-1.704-1.793-3.298-3.229-4.778c-1.229-1.149-2.56-2.066-3.996-2.743c-1.438-0.679-2.913-1.131-4.43-1.357
		c-1.519-0.227-3.044-0.227-4.586,0c-1.271,0.188-2.505,0.562-3.703,1.097v2.143c1.435-0.738,2.921-1.222,4.459-1.45
		c1.542-0.226,3.067-0.226,4.586,0c1.516,0.229,2.991,0.68,4.429,1.358c1.437,0.677,2.768,1.594,3.997,2.743
		c1.167,1.203,2.084,2.485,2.776,3.839C357.127,27.185,357.036,26.895,356.922,26.62z M189.842,31.738
		c-0.801-0.883-1.746-1.594-2.833-2.127c-1.086-0.532-2.266-0.802-3.534-0.802h-6.954c-0.375,0-0.711-0.092-1.004-0.272
		c-0.012,0.09-0.023,0.177-0.023,0.273c0,0.577,0.174,1.019,0.521,1.326c0.347,0.311,0.771,0.464,1.262,0.464h6.953
		c1.27,0,2.448,0.269,3.535,0.801c1.087,0.534,2.031,1.245,2.832,2.126c0.589,0.655,1.083,1.335,1.484,2.042
		c-0.101-0.354-0.216-0.699-0.365-1.026C191.268,33.557,190.64,32.625,189.842,31.738z M154.334,64.989
		c-0.236,0.027-0.43,0.128-0.583,0.299c-0.455,0.458-0.988,0.815-1.599,1.073s-1.268,0.386-1.97,0.386
		c-0.706,0-1.367-0.132-1.988-0.399c-0.614-0.268-1.157-0.635-1.625-1.104c-0.466-0.464-0.83-1.01-1.098-1.631
		c-0.052-0.119-0.074-0.248-0.115-0.371c0.035,0.579,0.144,1.137,0.366,1.657c0.269,0.621,0.632,1.167,1.099,1.632
		c0.467,0.468,1.01,0.835,1.626,1.104c0.621,0.268,1.281,0.398,1.987,0.398c0.702,0,1.36-0.127,1.969-0.385
		c0.611-0.26,1.144-0.616,1.601-1.074c0.152-0.171,0.344-0.271,0.582-0.299c0.2-0.024,0.384,0.029,0.563,0.13
		c0.001,0,0.002,0,0.002-0.001c0.131-0.209,0.179-0.43,0.14-0.658c-0.039-0.229-0.132-0.419-0.283-0.573
		C154.795,65.021,154.573,64.959,154.334,64.989z M168.107,31.264c-0.243-0.814-0.368-1.672-0.368-2.574
		c0-1.234,0.238-2.426,0.708-3.578c0.472-1.149,1.117-2.157,1.939-3.021c0.817-0.861,1.784-1.55,2.891-2.065
		c1.109-0.512,2.316-0.791,3.631-0.832h10.949c1.108,0,2.031,0.421,2.77,1.264c0.116,0.133,0.207,0.269,0.305,0.402
		c-0.106-0.765-0.45-1.497-1.06-2.193c-0.738-0.843-1.662-1.263-2.77-1.263h-10.949c-1.315,0.041-2.522,0.32-3.632,0.832
		c-1.105,0.515-2.072,1.204-2.89,2.065c-0.822,0.864-1.469,1.871-1.939,3.022c-0.47,1.15-0.708,2.342-0.708,3.577
		c0,1.232,0.228,2.383,0.68,3.451C167.795,30.662,167.946,30.965,168.107,31.264z M155.561,31.617
		c-0.112-0.257-0.263-0.487-0.4-0.726c0.127,0.508,0.198,1.027,0.198,1.557c0,0.986-0.185,1.901-0.552,2.742
		c-0.371,0.845-0.863,1.573-1.479,2.189c-0.613,0.618-1.343,1.102-2.183,1.45c-0.842,0.349-1.733,0.522-2.677,0.522
		c-0.859,0-1.699-0.185-2.524-0.554c-0.816-0.371-1.545-0.862-2.181-1.479c-0.471-0.458-0.853-0.997-1.187-1.58
		c0.097,0.404,0.228,0.799,0.404,1.182c0.391,0.843,0.901,1.571,1.537,2.188c0.637,0.618,1.365,1.107,2.182,1.48
		c0.825,0.368,1.664,0.554,2.524,0.554c0.942,0,1.835-0.175,2.677-0.523c0.839-0.349,1.568-0.832,2.182-1.449
		c0.617-0.618,1.108-1.347,1.479-2.189c0.369-0.841,0.554-1.757,0.554-2.743C156.114,33.335,155.93,32.461,155.561,31.617z
		 M218.554,20.116c0.111,0.124,0.198,0.259,0.292,0.389c-0.129-0.811-0.472-1.539-1.047-2.179c-0.735-0.819-1.701-1.231-2.892-1.231
		h-9.823v1.791h10.579C216.853,18.886,217.818,19.297,218.554,20.116z M152.172,55.985c0.129-0.155,0.207-0.331,0.207-0.541
		c0-0.249-0.09-0.459-0.27-0.63c-0.181-0.171-0.426-0.257-0.729-0.257h-6.058v1.286h6.31
		C151.847,55.844,152.019,55.901,152.172,55.985z M184.224,38.182c-0.115,0.766-0.634,1.171-1.612,1.171h-11.32
		c-1.066,0.042-1.969,0.483-2.705,1.326c-0.74,0.843-1.107,1.779-1.107,2.807c0,0.914,0.279,1.696,0.807,2.359
		c-0.023-0.187-0.051-0.371-0.051-0.569c0-1.026,0.366-1.963,1.107-2.807c0.735-0.844,1.639-1.283,2.704-1.325h11.32
		c1.11,0,1.662-0.493,1.662-1.48C185.028,38.9,184.748,38.42,184.224,38.182z M314.691,8.153c-1.107,0.041-2.031,0.431-2.765,1.171
		c-0.74,0.741-1.173,1.625-1.295,2.651v24.604c0,1.439,0.275,2.815,0.83,4.129c0.134,0.32,0.282,0.632,0.443,0.935
		c-0.342-1.053-0.519-2.144-0.519-3.272V13.766c0.122-1.026,0.556-1.91,1.296-2.65c0.732-0.74,1.657-1.131,2.764-1.172
		c1.107,0,2.039,0.392,2.796,1.172c0.158,0.161,0.293,0.337,0.419,0.514c-0.165-0.89-0.549-1.662-1.175-2.305
		C316.73,8.544,315.799,8.153,314.691,8.153z M157.118,54.613c-0.247,0-0.455,0.087-0.627,0.258
		c-0.171,0.174-0.253,0.382-0.253,0.631v12.133c0,0.247,0.082,0.454,0.251,0.627V56.788c0-0.249,0.083-0.457,0.254-0.631
		c0.173-0.172,0.379-0.257,0.627-0.257s0.458,0.085,0.628,0.257c0.004,0.005,0.004,0.009,0.008,0.013v-0.668
		c0-0.249-0.088-0.457-0.26-0.631C157.577,54.7,157.365,54.613,157.118,54.613z M157.118,50.379c-0.322,0-0.601,0.115-0.826,0.342
		c-0.23,0.23-0.344,0.508-0.344,0.832c0,0.323,0.113,0.599,0.343,0.826c0.058-0.135,0.14-0.26,0.253-0.371
		c0.227-0.228,0.503-0.344,0.826-0.344s0.601,0.116,0.83,0.344l0,0c0.059-0.14,0.09-0.292,0.09-0.455
		c0-0.324-0.114-0.602-0.342-0.832C157.72,50.494,157.442,50.379,157.118,50.379z M169.626,54.728c-0.211-0.095-0.417-0.095-0.63,0
		c-0.21,0.098-0.382,0.25-0.513,0.458l-3.856,10.13l-3.711-10.13c-0.131-0.171-0.298-0.318-0.497-0.442
		c-0.201-0.122-0.416-0.14-0.644-0.043c-0.212,0.096-0.362,0.269-0.458,0.516c-0.095,0.249-0.095,0.486,0,0.715
		c0,0.02,0.075,0.233,0.229,0.642c0.002,0.005,0.005,0.012,0.007,0.018c0.008-0.029,0.005-0.059,0.017-0.088
		c0.097-0.247,0.246-0.42,0.458-0.517c0.228-0.095,0.443-0.078,0.643,0.044c0.2,0.124,0.366,0.271,0.499,0.443l3.71,10.129
		l3.855-10.129c0.131-0.209,0.304-0.361,0.514-0.46c0.213-0.093,0.42-0.093,0.63,0c0.047,0.021,0.078,0.057,0.119,0.082
		c0.045-0.123,0.074-0.2,0.084-0.224c0.097-0.208,0.102-0.427,0.017-0.655C170.01,54.985,169.851,54.825,169.626,54.728z
		 M181.844,56.676c-0.625-0.612-1.35-1.098-2.154-1.46c-0.812-0.362-1.673-0.545-2.586-0.545c-0.988,0.038-1.908,0.245-2.751,0.614
		c-0.852,0.374-1.584,0.87-2.203,1.49c-0.615,0.618-1.104,1.344-1.454,2.175c-0.353,0.829-0.526,1.722-0.526,2.677
		c0,0.723,0.098,1.404,0.29,2.046c-0.023-0.248-0.039-0.501-0.039-0.76c0-0.955,0.175-1.849,0.527-2.677
		c0.35-0.831,0.839-1.557,1.454-2.175c0.619-0.62,1.351-1.116,2.203-1.49c0.843-0.368,1.763-0.577,2.751-0.615
		c0.913,0,1.774,0.184,2.586,0.546c0.805,0.363,1.529,0.848,2.154,1.46c0.628,0.61,1.125,1.325,1.503,2.145
		c0.129,0.288,0.23,0.585,0.317,0.886c-0.077-0.764-0.263-1.488-0.569-2.172C182.97,58.001,182.471,57.285,181.844,56.676z
		 M144.188,50.152c-0.249,0-0.458,0.084-0.631,0.254c-0.168,0.174-0.256,0.383-0.256,0.63v10.591c0,0.686,0.098,1.339,0.283,1.966
		c-0.021-0.224-0.032-0.45-0.032-0.68V52.322c0-0.247,0.088-0.456,0.257-0.631c0.174-0.169,0.381-0.253,0.63-0.253
		c0.248,0,0.458,0.084,0.628,0.253c0.002,0.002,0.003,0.006,0.005,0.008v-0.663c0-0.247-0.085-0.456-0.256-0.63
		C144.645,50.236,144.434,50.152,144.188,50.152z M140.075,61.627c-0.038,0.74-0.194,1.425-0.47,2.044s-0.649,1.159-1.115,1.617
		c-0.468,0.458-1.002,0.815-1.612,1.073c-0.607,0.258-1.255,0.386-1.941,0.386c-0.704,0-1.366-0.132-1.982-0.399
		c-0.622-0.268-1.162-0.635-1.629-1.104c-0.469-0.464-0.832-1.01-1.1-1.631c-0.051-0.119-0.074-0.248-0.116-0.371
		c0.037,0.579,0.146,1.137,0.368,1.657c0.266,0.621,0.632,1.167,1.099,1.632c0.468,0.468,1.008,0.835,1.631,1.104
		c0.614,0.268,1.276,0.398,1.98,0.398c0.687,0,1.334-0.127,1.941-0.385c0.61-0.26,1.146-0.616,1.613-1.074
		c0.465-0.458,0.84-0.998,1.115-1.617c0.274-0.619,0.432-1.304,0.471-2.044c0-0.571-0.112-1.11-0.286-1.633
		C140.049,61.397,140.075,61.509,140.075,61.627z M140.075,67.662c0,0.246,0.086,0.452,0.253,0.623v-1.082
		c-0.077,0.086-0.173,0.157-0.253,0.239V67.662z M200.143,7.969c-1.105,0-2.078,0.367-2.918,1.108
		c-0.84,0.74-1.266,1.666-1.266,2.774v20.285c0.041,2.306,0.486,4.391,1.325,6.261c0.085,0.188,0.184,0.361,0.275,0.544
		c-0.523-1.539-0.813-3.207-0.846-5.015V13.642c0-1.108,0.426-2.034,1.266-2.775c0.84-0.74,1.813-1.106,2.919-1.106
		c1.149,0,2.113,0.397,2.89,1.202c0.165,0.169,0.309,0.354,0.442,0.541c-0.175-0.902-0.566-1.686-1.197-2.332
		C202.257,8.368,201.293,7.969,200.143,7.969z M303.158,22.488c-1.169-1.334-2.564-2.436-4.185-3.299
		c-1.618-0.863-3.352-1.396-5.198-1.602c-0.288-0.042-0.566-0.062-0.831-0.062h-0.889c-3.08,0-5.824,0.821-8.244,2.465
		c-2.425,1.646-4.228,3.802-5.415,6.476c-0.412,0.947-0.731,1.913-0.953,2.897c-0.229,0.986-0.342,2.015-0.342,3.084
		s0.113,2.095,0.342,3.084c0.222,0.986,0.541,1.953,0.953,2.896c0.1,0.218,0.209,0.43,0.315,0.642
		c-0.201-0.575-0.38-1.156-0.513-1.747c-0.229-0.988-0.343-2.016-0.343-3.084s0.113-2.098,0.343-3.083
		c0.221-0.985,0.541-1.951,0.952-2.897c1.187-2.674,2.991-4.831,5.415-6.477c2.421-1.644,5.165-2.465,8.244-2.465h0.89
		c0.265,0,0.543,0.02,0.831,0.061c1.847,0.207,3.579,0.739,5.198,1.604c1.619,0.863,3.015,1.964,4.185,3.297
		c0.857,0.98,1.58,2.064,2.171,3.245c-0.056-0.157-0.1-0.316-0.161-0.471C305.249,25.348,304.327,23.824,303.158,22.488z
		 M272.366,17.588c-2.012,0.082-3.902,0.503-5.691,1.264c-1.782,0.761-3.341,1.789-4.673,3.083
		c-1.335,1.296-2.401,2.816-3.198,4.563c-0.802,1.748-1.223,3.606-1.263,5.581v11.407c0.064,0.959,0.353,1.756,0.844,2.408
		c-0.037-0.2-0.073-0.401-0.089-0.618V33.869c0.04-1.975,0.461-3.834,1.263-5.581c0.798-1.747,1.863-3.268,3.198-4.564
		c1.333-1.292,2.892-2.321,4.673-3.083c1.789-0.759,3.68-1.181,5.691-1.264c1.148,0,2.101,0.392,2.862,1.171
		c0.158,0.163,0.294,0.338,0.423,0.516c-0.161-0.881-0.545-1.655-1.179-2.307C274.467,17.978,273.515,17.588,272.366,17.588z
		 M335.023,9.203c-0.391-0.371-0.833-0.67-1.323-0.896c-0.491-0.226-1.008-0.318-1.54-0.278c-0.488-0.04-0.971,0.041-1.442,0.246
		c-0.473,0.208-0.895,0.483-1.262,0.833c-0.372,0.35-0.677,0.762-0.921,1.233c-0.249,0.472-0.372,0.956-0.372,1.449v20.657
		c0,2.014,0.411,3.925,1.229,5.735c0.074,0.163,0.162,0.314,0.241,0.474c-0.474-1.414-0.716-2.886-0.716-4.419V13.581
		c0-0.494,0.125-0.977,0.372-1.45c0.244-0.47,0.55-0.882,0.921-1.232c0.368-0.349,0.79-0.624,1.262-0.833
		c0.473-0.204,0.954-0.285,1.443-0.245c0.531-0.04,1.048,0.052,1.54,0.277c0.489,0.227,0.932,0.524,1.322,0.896
		c0.143,0.136,0.261,0.292,0.38,0.448c-0.05-0.309-0.123-0.614-0.241-0.915C335.708,10.012,335.41,9.571,335.023,9.203z
		 M181.271,65.029c-0.248,0-0.453,0.088-0.626,0.259c-0.476,0.458-1.017,0.815-1.629,1.073c-0.607,0.258-1.265,0.386-1.967,0.386
		c-0.632,0-1.229-0.109-1.801-0.329c-0.569-0.219-1.08-0.52-1.528-0.901c-0.447-0.381-0.824-0.833-1.127-1.359
		c-0.076-0.133-0.129-0.278-0.192-0.417h-0.153c0.094,0.612,0.293,1.179,0.598,1.703c0.303,0.526,0.679,0.979,1.127,1.359
		c0.448,0.382,0.958,0.682,1.528,0.901c0.571,0.221,1.169,0.329,1.801,0.329c0.702,0,1.359-0.127,1.967-0.385
		c0.612-0.26,1.153-0.616,1.629-1.074c0.173-0.171,0.378-0.259,0.626-0.259c0.168,0,0.312,0.054,0.444,0.133
		c0.118-0.153,0.191-0.324,0.191-0.531c0-0.247-0.084-0.458-0.257-0.629C181.731,65.117,181.521,65.029,181.271,65.029z
		 M172.715,60.681c-0.195,0.409-0.354,0.832-0.44,1.286h10.076c-0.086-0.454-0.246-0.877-0.445-1.286H172.715z M250.248,22.057
		c-1.373-1.375-2.962-2.475-4.766-3.3c-1.806-0.821-3.688-1.23-5.655-1.23c-2.016,0-3.919,0.409-5.723,1.23
		c-1.809,0.825-3.388,1.925-4.741,3.3c-1.351,1.378-2.429,2.971-3.229,4.78c-0.798,1.809-1.199,3.68-1.199,5.611
		c0,1.973,0.401,3.885,1.199,5.735c0.112,0.26,0.244,0.504,0.367,0.756c-0.531-1.526-0.812-3.093-0.812-4.701
		c0-1.932,0.401-3.803,1.199-5.611c0.801-1.809,1.878-3.402,3.229-4.781c1.354-1.373,2.933-2.474,4.741-3.298
		c1.804-0.821,3.708-1.231,5.723-1.231c1.967,0,3.851,0.41,5.656,1.231c1.804,0.824,3.392,1.925,4.766,3.298
		c1.267,1.27,2.285,2.719,3.082,4.336c-0.155-0.465-0.337-0.924-0.544-1.377C252.721,25.017,251.624,23.435,250.248,22.057z
		 M139.791,56.732c-0.629-0.629-1.357-1.133-2.184-1.504c-0.828-0.371-1.7-0.558-2.615-0.558c-0.988,0.038-1.909,0.245-2.754,0.614
		c-0.847,0.374-1.579,0.87-2.198,1.49c-0.618,0.618-1.104,1.344-1.457,2.175c-0.352,0.829-0.526,1.722-0.526,2.677
		c0,0.721,0.098,1.4,0.289,2.04c-0.024-0.246-0.038-0.497-0.038-0.754c0-0.955,0.175-1.849,0.526-2.677
		c0.353-0.831,0.838-1.557,1.458-2.175c0.617-0.62,1.35-1.116,2.198-1.49c0.845-0.368,1.763-0.577,2.753-0.615
		c0.916,0,1.786,0.188,2.614,0.559c0.826,0.372,1.554,0.874,2.184,1.504c0.628,0.629,1.127,1.364,1.498,2.204
		c0.107,0.244,0.195,0.495,0.273,0.75c-0.067-0.713-0.24-1.393-0.524-2.036C140.916,58.096,140.42,57.361,139.791,56.732z
		 M53.205,64.603c-0.382,1.098-1.564,2.158-2.494,2.937c-1.871,1.574-4.484,2.514-7.616,1.833c-1.598-0.345-3.874-1.896-4.888-3.188
		c0.097,0.452,0.212,0.871,0.37,1.199c0.653,1.36,3.422,3.378,5.273,3.779c3.131,0.681,5.745-0.26,7.616-1.834
		c1.231-1.03,2.908-2.555,2.58-4.007C53.966,64.977,53.637,64.763,53.205,64.603z M26.292,31.157
		c0.313-0.125,0.589-0.284,0.817-0.491c-0.387,0.027-0.761,0.027-1.073-0.043C26.061,30.844,26.16,31.016,26.292,31.157z
		 M58.614,35.203c-0.266-0.064-0.519-0.071-0.761-0.038c-0.039,1.135-0.013,2.276,0.757,2.798
		C58.559,37.044,58.699,35.995,58.614,35.203z M58.867,42.901c-0.868-0.107-1.586-0.567-2.18-1.243
		c-0.035-0.039-0.056-0.088-0.087-0.129c0.184,0.681,0.383,1.398,0.842,1.92c0.875,0.995,2.014,1.543,3.517,1.144
		C60.065,44.222,59.264,43.761,58.867,42.901z M29.384,73.954c-0.369,0.318-0.847,0.467-1.336,0.494
		c0.298,0.059,0.644,0.07,1.037,0.036c-0.02,0.041-0.051,0.072-0.075,0.109C29.179,74.425,29.319,74.227,29.384,73.954z
		 M28.21,31.695c-0.052,0.012-0.121,0.03-0.186,0.047c0.065,0.005,0.123,0.011,0.182,0.015
		C28.206,31.735,28.214,31.718,28.21,31.695z M33.889,10.352c3.334,0.252,6.954,1.748,9.255,3.896
		c0.891,0.827,1.995,2.141,2.79,3.616c-0.652-2.163-2.305-4.255-3.544-5.406c-2.153-2.008-5.454-3.433-8.6-3.818
		c-4.548-0.076-8.167,1.903-10.799,4.348c-2.499,2.32-4.181,5.086-5.625,8.245c0.017,0.477,0.077,0.024,0.233,0
		C20.728,16.158,24.795,9.667,33.889,10.352z M28.965,33.485c0.138,0.841-1.264,1.328-0.937,1.604
		c2.823,0.165,2.772-2.633,4.687-3.552c0.119-0.057,0.254-0.093,0.396-0.126c-0.02-0.685,0.085-1.411,0.373-2.121
		c-0.532,0.292-1.11,0.26-1.524,0.458c-1.915,0.917-1.863,3.716-4.687,3.551c-0.26-0.22,0.56-0.574,0.844-1.131
		c-0.468,0.62-1.244,0.941-2.199,1.09C26.533,34.179,28.313,33.641,28.965,33.485z M113.857,56.042
		c0.129-0.155,0.207-0.329,0.207-0.54c0-0.249-0.089-0.457-0.269-0.631c-0.182-0.171-0.423-0.258-0.729-0.258
		c-0.932,0.02-1.807,0.212-2.625,0.572c-0.82,0.363-1.537,0.86-2.157,1.49c-0.618,0.628-1.103,1.358-1.455,2.188
		c-0.353,0.83-0.529,1.712-0.529,2.648v6.122c0,0.243,0.085,0.448,0.251,0.62v-5.456c0-0.937,0.177-1.819,0.53-2.648
		c0.353-0.83,0.836-1.561,1.455-2.188c0.62-0.631,1.337-1.127,2.156-1.489c0.818-0.361,1.694-0.553,2.625-0.572
		C113.532,55.9,113.705,55.958,113.857,56.042z M124.832,56.676c-0.631-0.612-1.35-1.098-2.157-1.46
		c-0.811-0.362-1.67-0.545-2.582-0.545c-0.991,0.038-1.91,0.245-2.758,0.614c-0.846,0.374-1.58,0.87-2.197,1.49
		c-0.62,0.618-1.105,1.344-1.457,2.175c-0.354,0.829-0.527,1.722-0.527,2.677c0,0.723,0.098,1.404,0.29,2.045
		c-0.024-0.248-0.038-0.501-0.038-0.759c0-0.955,0.173-1.849,0.526-2.677c0.352-0.831,0.837-1.557,1.457-2.175
		c0.617-0.62,1.351-1.116,2.196-1.49c0.849-0.368,1.767-0.577,2.759-0.615c0.912,0,1.771,0.184,2.581,0.546
		c0.809,0.363,1.527,0.848,2.157,1.46c0.628,0.61,1.126,1.325,1.498,2.145c0.13,0.289,0.232,0.586,0.322,0.888
		c-0.078-0.764-0.264-1.489-0.574-2.174C125.957,58.001,125.458,57.285,124.832,56.676z M124.26,65.029
		c-0.249,0-0.459,0.088-0.629,0.259c-0.477,0.458-1.017,0.815-1.626,1.073c-0.61,0.258-1.268,0.386-1.971,0.386
		c-0.627,0-1.228-0.109-1.796-0.329c-0.573-0.219-1.083-0.52-1.528-0.901c-0.447-0.381-0.825-0.833-1.129-1.359
		c-0.078-0.133-0.129-0.278-0.192-0.417h-0.156c0.097,0.612,0.295,1.179,0.6,1.703c0.303,0.526,0.681,0.979,1.129,1.359
		c0.445,0.382,0.955,0.682,1.528,0.901c0.569,0.221,1.169,0.329,1.796,0.329c0.704,0,1.361-0.127,1.971-0.385
		c0.61-0.26,1.15-0.616,1.626-1.074c0.17-0.171,0.381-0.259,0.63-0.259c0.166,0,0.31,0.054,0.442,0.133
		c0.117-0.153,0.19-0.324,0.19-0.531c0-0.247-0.087-0.458-0.256-0.629C124.715,65.117,124.506,65.029,124.26,65.029z
		 M115.699,60.681c-0.193,0.409-0.352,0.832-0.439,1.286h10.078c-0.086-0.454-0.248-0.877-0.448-1.286H115.699z M95.205,58.117
		c0.616-0.618,1.35-1.115,2.198-1.489c0.846-0.37,1.764-0.574,2.754-0.615c0.572,0,1.1,0.072,1.585,0.216s0.921,0.314,1.314,0.516
		c0.39,0.201,0.735,0.414,1.042,0.645c0.251,0.191,0.455,0.354,0.629,0.504c0.179-0.201,0.241-0.419,0.16-0.66
		c-0.083-0.258-0.186-0.434-0.299-0.532c-0.193-0.171-0.438-0.367-0.743-0.597c-0.306-0.232-0.651-0.444-1.042-0.646
		c-0.392-0.201-0.828-0.372-1.314-0.516c-0.484-0.144-1.014-0.215-1.584-0.215c-0.991,0.04-1.908,0.244-2.754,0.614
		c-0.848,0.374-1.581,0.871-2.197,1.49c-0.621,0.621-1.105,1.346-1.456,2.176c-0.354,0.829-0.53,1.723-0.53,2.674
		c0,0.721,0.1,1.4,0.29,2.039c-0.024-0.245-0.037-0.496-0.037-0.753c0-0.951,0.175-1.845,0.529-2.675
		C94.1,59.464,94.584,58.739,95.205,58.117z M30.555,75.671c0.396-0.416,0.627-1.204,0.353-1.947
		c-0.514,1.053-1.709,2.059-3.263,1.564c-0.42,0.034-0.841-0.015-1.138-0.116c0.597,1.075,2.565,1.494,3.633,0.572
		c-0.203,0.861-1.006,1.142-1.977,1.256c0.068,0.023,0.137,0.047,0.206,0.07c1.569,0.519,2.778-0.496,3.294-1.556
		c0.275,0.743,0.044,1.531-0.353,1.946c1.96-0.869,2.676-4.45,1.193-6.13C32.72,73.04,31.956,75.05,30.555,75.671z M53.719,34.811
		c0.888-2.955,1.812-5.336,1.967-8.77c0.153-3.405-0.527-6.565-1.857-9.307c0.825,2.297,1.222,4.829,1.102,7.516
		c-0.178,3.928-1.36,6.473-2.344,10.08C52.989,34.676,53.361,34.806,53.719,34.811z"/>
	<g opacity="0.5">
		<path d="M66.133,118.722c0-0.255,0.093-0.465,0.281-0.644c0.19-0.17,0.419-0.256,0.694-0.256c0.27,0,0.502,0.086,0.691,0.256
			c0.188,0.179,0.28,0.389,0.28,0.644v8.46c0,0.414,0.086,0.794,0.253,1.154c0.164,0.364,0.393,0.681,0.675,0.947
			c0.285,0.277,0.622,0.488,1.007,0.641c0.39,0.157,0.798,0.236,1.239,0.236c0.443,0,0.853-0.079,1.244-0.236
			c0.388-0.152,0.727-0.363,1.021-0.641c0.296-0.267,0.522-0.583,0.694-0.947c0.167-0.36,0.251-0.74,0.251-1.154v-8.46
			c0-0.255,0.094-0.465,0.282-0.644c0.19-0.17,0.418-0.256,0.695-0.256c0.267,0,0.5,0.086,0.685,0.256
			c0.194,0.179,0.289,0.389,0.289,0.644v8.46c0,0.664-0.139,1.289-0.406,1.87c-0.279,0.578-0.643,1.095-1.107,1.521
			c-0.458,0.421-1.004,0.76-1.632,1.02c-0.624,0.252-1.298,0.378-2.015,0.378c-0.877,0-1.675-0.182-2.383-0.544
			c-0.714-0.355-1.313-0.839-1.793-1.444c-0.464,0.605-1.049,1.089-1.76,1.444c-0.717,0.362-1.507,0.544-2.392,0.544
			c-0.711,0-1.378-0.126-2.014-0.378c-0.625-0.26-1.172-0.599-1.631-1.02c-0.461-0.427-0.821-0.943-1.083-1.521
			c-0.267-0.581-0.396-1.206-0.396-1.87v-8.46c0-0.255,0.093-0.465,0.288-0.644c0.185-0.17,0.416-0.256,0.686-0.256
			c0.273,0,0.506,0.086,0.696,0.256c0.187,0.179,0.279,0.389,0.279,0.644v8.46c0,0.414,0.087,0.794,0.252,1.154
			c0.167,0.364,0.392,0.681,0.675,0.947c0.286,0.277,0.624,0.488,1.005,0.641c0.395,0.157,0.803,0.236,1.244,0.236
			c0.864,0,1.598-0.28,2.22-0.851c0.618-0.556,0.942-1.27,0.99-2.128V118.722z"/>
		<path d="M86.626,118.722c0-0.255,0.096-0.465,0.286-0.644c0.184-0.17,0.418-0.256,0.691-0.256c0.271,0,0.5,0.086,0.69,0.256
			c0.192,0.179,0.284,0.389,0.284,0.644v8.46c0,0.414,0.08,0.794,0.25,1.154c0.162,0.364,0.397,0.681,0.678,0.947
			c0.281,0.277,0.613,0.488,1.003,0.641c0.387,0.157,0.806,0.236,1.245,0.236c0.437,0,0.85-0.079,1.237-0.236
			c0.39-0.152,0.732-0.363,1.029-0.641c0.293-0.267,0.519-0.583,0.688-0.947c0.169-0.36,0.25-0.74,0.25-1.154v-8.46
			c0-0.255,0.096-0.465,0.282-0.644c0.188-0.17,0.415-0.256,0.694-0.256c0.272,0,0.498,0.086,0.692,0.256
			c0.191,0.179,0.28,0.389,0.28,0.644v8.46c0,0.664-0.132,1.289-0.407,1.87c-0.277,0.578-0.638,1.095-1.102,1.521
			c-0.463,0.421-1.005,0.76-1.632,1.02c-0.629,0.252-1.3,0.378-2.012,0.378c-0.882,0-1.677-0.182-2.389-0.544
			c-0.713-0.355-1.313-0.839-1.798-1.444c-0.462,0.605-1.042,1.089-1.755,1.444c-0.714,0.362-1.509,0.544-2.389,0.544
			c-0.711,0-1.382-0.126-2.008-0.378c-0.631-0.26-1.18-0.599-1.638-1.02c-0.461-0.427-0.822-0.943-1.086-1.521
			c-0.258-0.581-0.389-1.206-0.389-1.87v-8.46c0-0.255,0.092-0.465,0.281-0.644c0.189-0.17,0.417-0.256,0.69-0.256
			s0.504,0.086,0.699,0.256c0.181,0.179,0.273,0.389,0.273,0.644v8.46c0,0.414,0.091,0.794,0.259,1.154
			c0.165,0.364,0.391,0.681,0.67,0.947c0.279,0.277,0.624,0.488,1.001,0.641c0.398,0.157,0.813,0.236,1.248,0.236
			c0.854,0,1.596-0.28,2.22-0.851c0.614-0.556,0.948-1.27,0.986-2.128V118.722z"/>
		<path d="M107.121,118.722c0-0.255,0.091-0.465,0.286-0.644c0.186-0.17,0.417-0.256,0.691-0.256c0.273,0,0.504,0.086,0.689,0.256
			c0.193,0.179,0.283,0.389,0.283,0.644v8.46c0,0.414,0.085,0.794,0.252,1.154c0.166,0.364,0.388,0.681,0.673,0.947
			c0.284,0.277,0.62,0.488,1.008,0.641c0.387,0.157,0.805,0.236,1.246,0.236c0.434,0,0.845-0.079,1.236-0.236
			c0.391-0.152,0.73-0.363,1.023-0.641c0.295-0.267,0.524-0.583,0.689-0.947c0.168-0.36,0.256-0.74,0.256-1.154v-8.46
			c0-0.255,0.092-0.465,0.28-0.644c0.186-0.17,0.422-0.256,0.695-0.256c0.268,0,0.503,0.086,0.687,0.256
			c0.187,0.179,0.279,0.389,0.279,0.644v8.46c0,0.664-0.128,1.289-0.404,1.87c-0.273,0.578-0.641,1.095-1.103,1.521
			c-0.454,0.421-1.003,0.76-1.63,1.02c-0.636,0.252-1.304,0.378-2.01,0.378c-0.886,0-1.678-0.182-2.391-0.544
			c-0.713-0.355-1.315-0.839-1.798-1.444c-0.457,0.605-1.042,1.089-1.762,1.444c-0.707,0.362-1.5,0.544-2.385,0.544
			c-0.714,0-1.384-0.126-2.009-0.378c-0.626-0.26-1.176-0.599-1.632-1.02c-0.465-0.427-0.826-0.943-1.093-1.521
			c-0.254-0.581-0.388-1.206-0.388-1.87v-8.46c0-0.255,0.091-0.465,0.281-0.644c0.189-0.17,0.42-0.256,0.699-0.256
			c0.266,0,0.501,0.086,0.688,0.256c0.183,0.179,0.279,0.389,0.279,0.644v8.46c0,0.414,0.09,0.794,0.253,1.154
			c0.173,0.364,0.391,0.681,0.678,0.947c0.284,0.277,0.62,0.488,1.006,0.641c0.39,0.157,0.8,0.236,1.24,0.236
			c0.854,0,1.598-0.28,2.217-0.851c0.619-0.556,0.948-1.27,0.989-2.128V118.722z"/>
		<path d="M118.003,130.774c0-0.331,0.122-0.614,0.373-0.851c0.258-0.232,0.558-0.346,0.906-0.346c0.358,0,0.663,0.113,0.923,0.346
			c0.251,0.236,0.374,0.52,0.374,0.851c0,0.323-0.122,0.612-0.374,0.845c-0.261,0.234-0.565,0.352-0.923,0.352
			c-0.349,0-0.648-0.117-0.906-0.352C118.125,131.387,118.003,131.098,118.003,130.774z"/>
		<path d="M130.574,122.606c-0.038-0.86-0.375-1.568-0.99-2.136c-0.617-0.555-1.361-0.842-2.221-0.842
			c-0.432,0-0.85,0.075-1.237,0.228c-0.389,0.16-0.725,0.374-1.009,0.647c-0.279,0.271-0.509,0.593-0.673,0.949
			c-0.169,0.356-0.254,0.737-0.254,1.153v8.454c0,0.255-0.091,0.472-0.285,0.646c-0.188,0.169-0.418,0.264-0.68,0.264
			c-0.277,0-0.509-0.095-0.703-0.264c-0.18-0.175-0.276-0.392-0.276-0.646v-8.454c0-0.664,0.13-1.286,0.388-1.873
			c0.262-0.579,0.629-1.088,1.083-1.514c0.469-0.429,1.008-0.768,1.634-1.02c0.631-0.257,1.301-0.378,2.013-0.378
			c0.881,0,1.681,0.177,2.392,0.537c0.713,0.359,1.297,0.844,1.756,1.445c0.484-0.602,1.086-1.086,1.795-1.445
			c0.713-0.36,1.509-0.537,2.394-0.537c0.713,0,1.382,0.121,2.007,0.378c0.63,0.252,1.176,0.591,1.635,1.02
			c0.468,0.426,0.828,0.935,1.102,1.514c0.272,0.587,0.409,1.209,0.409,1.873v8.454c0,0.255-0.095,0.472-0.286,0.646
			c-0.187,0.169-0.415,0.264-0.685,0.264c-0.274,0-0.501-0.095-0.692-0.264c-0.192-0.175-0.287-0.392-0.287-0.646v-8.454
			c0-0.416-0.088-0.797-0.252-1.153c-0.167-0.356-0.395-0.678-0.686-0.949c-0.297-0.273-0.632-0.487-1.024-0.647
			c-0.386-0.152-0.806-0.228-1.24-0.228c-0.444,0-0.858,0.075-1.244,0.228c-0.391,0.16-0.723,0.374-1.006,0.647
			c-0.281,0.271-0.512,0.593-0.673,0.949c-0.174,0.356-0.251,0.737-0.251,1.153v8.454c0,0.255-0.097,0.472-0.288,0.646
			c-0.188,0.169-0.417,0.264-0.689,0.264c-0.273,0-0.506-0.095-0.688-0.264c-0.191-0.175-0.287-0.392-0.287-0.646V122.606z"/>
		<path d="M150.129,117.845c1.004,0,1.967,0.192,2.874,0.573c0.909,0.377,1.712,0.889,2.406,1.533
			c0.692,0.637,1.237,1.389,1.648,2.239c0.41,0.859,0.616,1.778,0.616,2.747v6.158c0,0.248-0.093,0.466-0.293,0.638
			c-0.183,0.178-0.41,0.267-0.68,0.267c-0.277,0-0.507-0.089-0.696-0.267c-0.183-0.172-0.286-0.39-0.286-0.638v-1.786
			c-0.688,0.719-1.52,1.339-2.493,1.85c-0.98,0.521-2.03,0.78-3.161,0.78c-1.048,0-2.034-0.18-2.942-0.527
			c-0.911-0.352-1.71-0.834-2.403-1.454c-0.689-0.623-1.238-1.362-1.636-2.216c-0.396-0.856-0.593-1.794-0.593-2.805
			c0-0.969,0.192-1.882,0.575-2.729c0.392-0.845,0.927-1.578,1.611-2.22c0.678-0.628,1.484-1.138,2.416-1.515
			C148.026,118.096,149.037,117.885,150.129,117.845z M144.431,124.938c0,0.716,0.151,1.392,0.444,2.023
			c0.296,0.635,0.699,1.189,1.206,1.664c0.521,0.479,1.118,0.854,1.799,1.128c0.682,0.271,1.407,0.407,2.185,0.407
			c0.749,0,1.464-0.132,2.136-0.389c0.666-0.265,1.262-0.637,1.777-1.101c0.509-0.465,0.921-1.014,1.224-1.649
			c0.309-0.629,0.481-1.321,0.518-2.084c0-0.721-0.146-1.396-0.44-2.042c-0.29-0.641-0.693-1.203-1.207-1.675
			c-0.515-0.48-1.116-0.853-1.809-1.121c-0.686-0.271-1.424-0.413-2.198-0.413c-0.777,0-1.503,0.142-2.185,0.413
			c-0.681,0.269-1.277,0.641-1.799,1.121c-0.507,0.472-0.91,1.034-1.206,1.675C144.582,123.541,144.431,124.217,144.431,124.938z"/>
		<path d="M159.556,131.061c0-0.248,0.096-0.464,0.284-0.635c0.189-0.176,0.418-0.266,0.694-0.266h6.792
			c0.604,0,1.131-0.202,1.565-0.615c0.441-0.41,0.664-0.895,0.664-1.458c0-0.565-0.223-1.054-0.664-1.457
			c-0.435-0.41-0.961-0.614-1.565-0.614h-3.686c-0.603,0-1.175-0.108-1.713-0.315c-0.537-0.217-0.996-0.51-1.394-0.883
			c-0.402-0.366-0.715-0.797-0.943-1.294c-0.234-0.496-0.347-1.029-0.347-1.59c0-0.567,0.112-1.098,0.347-1.607
			c0.229-0.498,0.541-0.939,0.943-1.313c0.397-0.367,0.856-0.661,1.394-0.871c0.538-0.22,1.11-0.32,1.713-0.32h6.414
			c0.274,0,0.509,0.086,0.697,0.256c0.182,0.179,0.277,0.389,0.277,0.644c0,0.251-0.096,0.468-0.277,0.641
			c-0.188,0.175-0.423,0.267-0.697,0.267h-6.414c-0.674,0.017-1.244,0.251-1.729,0.697c-0.482,0.449-0.725,0.984-0.725,1.607
			c0,0.616,0.242,1.157,0.725,1.607c0.484,0.442,1.055,0.671,1.729,0.671h3.686c0.562,0,1.101,0.1,1.614,0.3
			c0.511,0.208,0.962,0.486,1.336,0.836c0.379,0.353,0.676,0.764,0.896,1.232c0.221,0.486,0.326,0.981,0.326,1.507
			c0,0.526-0.105,1.028-0.326,1.503c-0.221,0.474-0.518,0.89-0.896,1.24c-0.374,0.351-0.825,0.634-1.336,0.831
			c-0.514,0.204-1.053,0.31-1.614,0.31h-6.792c-0.276,0-0.505-0.095-0.694-0.264C159.651,131.532,159.556,131.315,159.556,131.061z"
			/>
		<path d="M173.08,113.998c0-0.249,0.086-0.468,0.274-0.64c0.189-0.177,0.415-0.27,0.691-0.27c0.273,0,0.504,0.093,0.696,0.27
			c0.185,0.172,0.281,0.391,0.281,0.64v3.735h6.949c0.329,0,0.606,0.089,0.799,0.263c0.198,0.17,0.3,0.391,0.3,0.638
			c0,0.251-0.102,0.466-0.3,0.646c-0.192,0.172-0.47,0.257-0.799,0.257h-6.949v5.4c0,0.716,0.143,1.392,0.439,2.023
			c0.292,0.635,0.691,1.189,1.211,1.664c0.508,0.479,1.108,0.854,1.792,1.128c0.678,0.271,1.409,0.407,2.183,0.407
			c0.775,0,1.498-0.132,2.167-0.389c0.675-0.265,1.255-0.637,1.76-1.101c0.174-0.175,0.383-0.273,0.642-0.308
			c0.264-0.027,0.513,0.034,0.74,0.188c0.174,0.163,0.277,0.354,0.328,0.583c0.037,0.238-0.016,0.46-0.167,0.675
			c-0.694,0.682-1.511,1.21-2.451,1.588c-0.945,0.379-1.956,0.573-3.019,0.573c-1.048,0-2.034-0.186-2.955-0.559
			c-0.92-0.369-1.723-0.868-2.403-1.5c-0.682-0.629-1.217-1.375-1.618-2.235c-0.402-0.849-0.592-1.77-0.592-2.739V113.998z"/>
		<path d="M189.107,125.781c0.099,0.626,0.326,1.2,0.663,1.737c0.324,0.539,0.747,0.995,1.235,1.387
			c0.497,0.387,1.056,0.693,1.68,0.919c0.631,0.222,1.293,0.336,1.982,0.336c0.777,0,1.503-0.132,2.172-0.389
			c0.671-0.265,1.267-0.637,1.792-1.101c0.188-0.175,0.419-0.263,0.693-0.263c0.27,0,0.501,0.088,0.691,0.263
			c0.179,0.177,0.276,0.387,0.276,0.639c0,0.257-0.098,0.474-0.276,0.648c-0.691,0.714-1.474,1.228-2.341,1.526
			c-0.874,0.305-1.878,0.455-3.008,0.455c-1.043,0-2.023-0.18-2.931-0.527c-0.919-0.352-1.721-0.834-2.411-1.454
			c-0.688-0.623-1.237-1.362-1.641-2.216c-0.392-0.856-0.583-1.794-0.583-2.805c0-0.969,0.188-1.882,0.573-2.729
			c0.386-0.845,0.925-1.578,1.606-2.22c0.674-0.628,1.481-1.138,2.415-1.515c0.932-0.378,1.947-0.589,3.042-0.629
			c1.003,0,1.948,0.187,2.842,0.562c0.886,0.367,1.687,0.865,2.375,1.479c0.685,0.63,1.236,1.357,1.644,2.194
			c0.416,0.836,0.633,1.729,0.685,2.678c0.036,0.337-0.052,0.59-0.269,0.761c-0.228,0.182-0.46,0.263-0.713,0.263H189.107z
			 M194.668,119.687c-0.689,0-1.342,0.112-1.964,0.337c-0.615,0.225-1.17,0.518-1.67,0.897c-0.49,0.384-0.897,0.837-1.22,1.36
			c-0.324,0.523-0.549,1.091-0.674,1.693h11.095c-0.122-0.603-0.358-1.17-0.694-1.693c-0.333-0.523-0.75-0.977-1.238-1.36
			c-0.495-0.38-1.047-0.673-1.666-0.897C196.016,119.799,195.359,119.687,194.668,119.687z"/>
		<path d="M203.627,124.817c0-0.945,0.192-1.849,0.588-2.698c0.38-0.844,0.917-1.589,1.596-2.233
			c0.685-0.637,1.477-1.146,2.374-1.511c0.899-0.373,1.864-0.564,2.893-0.589c0.335,0,0.605,0.09,0.802,0.263
			c0.202,0.176,0.3,0.393,0.3,0.644s-0.098,0.469-0.3,0.649c-0.196,0.17-0.467,0.251-0.802,0.251
			c-0.755,0.023-1.471,0.179-2.136,0.458c-0.664,0.283-1.258,0.656-1.762,1.121c-0.5,0.468-0.896,1.019-1.176,1.649
			c-0.285,0.636-0.431,1.306-0.431,1.996v6.243c0,0.255-0.088,0.472-0.285,0.646c-0.185,0.169-0.415,0.264-0.685,0.264
			c-0.269,0-0.5-0.095-0.696-0.264c-0.182-0.175-0.28-0.392-0.28-0.646V124.817z"/>
		<path d="M218.814,117.845c1.007,0,1.959,0.192,2.87,0.573c0.916,0.377,1.717,0.889,2.401,1.533
			c0.697,0.637,1.248,1.389,1.658,2.239c0.408,0.859,0.606,1.778,0.606,2.747v6.158c0,0.248-0.095,0.466-0.275,0.638
			c-0.192,0.178-0.419,0.267-0.689,0.267c-0.279,0-0.504-0.089-0.697-0.267c-0.196-0.172-0.288-0.39-0.288-0.638v-1.786
			c-0.679,0.719-1.518,1.339-2.497,1.85c-0.967,0.521-2.019,0.78-3.155,0.78c-1.05,0-2.028-0.18-2.939-0.527
			c-0.905-0.352-1.713-0.834-2.4-1.454c-0.692-0.623-1.238-1.362-1.644-2.216c-0.399-0.856-0.593-1.794-0.593-2.805
			c0-0.969,0.187-1.882,0.584-2.729c0.382-0.845,0.921-1.578,1.603-2.22c0.682-0.628,1.486-1.138,2.419-1.515
			C216.707,118.096,217.727,117.885,218.814,117.845z M213.117,124.938c0,0.716,0.149,1.392,0.45,2.023
			c0.282,0.635,0.69,1.189,1.204,1.664c0.51,0.479,1.109,0.854,1.791,1.128c0.678,0.271,1.406,0.407,2.186,0.407
			c0.751,0,1.47-0.132,2.136-0.389c0.672-0.265,1.266-0.637,1.777-1.101c0.519-0.465,0.923-1.014,1.229-1.649
			c0.304-0.629,0.477-1.321,0.511-2.084c0-0.721-0.145-1.396-0.438-2.042c-0.29-0.641-0.693-1.203-1.211-1.675
			c-0.505-0.48-1.106-0.853-1.805-1.121c-0.687-0.271-1.423-0.413-2.198-0.413c-0.779,0-1.508,0.142-2.186,0.413
			c-0.682,0.269-1.281,0.641-1.791,1.121c-0.514,0.472-0.922,1.034-1.204,1.675C213.267,123.541,213.117,124.217,213.117,124.938z"
			/>
		<path d="M234.248,131.061c0,0.255-0.1,0.472-0.29,0.646c-0.184,0.169-0.415,0.264-0.688,0.264
			c-0.965-0.023-1.772-0.197-2.417-0.526c-0.658-0.337-1.176-0.737-1.586-1.224c-0.41-0.491-0.709-1.009-0.885-1.55
			c-0.188-0.541-0.264-1.023-0.264-1.455v-13.218c0-0.249,0.085-0.468,0.275-0.64c0.195-0.177,0.416-0.27,0.704-0.27
			c0.264,0,0.493,0.093,0.688,0.27c0.188,0.172,0.276,0.391,0.276,0.64v13.218c0,0.15,0.041,0.384,0.117,0.698
			c0.068,0.313,0.225,0.634,0.455,0.968c0.232,0.322,0.555,0.617,0.974,0.871c0.42,0.253,0.976,0.394,1.662,0.407
			c0.272,0,0.504,0.09,0.688,0.266C234.148,130.597,234.248,130.813,234.248,131.061z"/>
		<path d="M242.831,117.845c1.006,0,1.969,0.192,2.877,0.573c0.911,0.377,1.709,0.889,2.403,1.533
			c0.694,0.637,1.246,1.389,1.645,2.239c0.412,0.859,0.613,1.778,0.613,2.747c0,0.955-0.201,1.851-0.598,2.696
			c-0.393,0.852-0.929,1.59-1.619,2.237c-0.678,0.636-1.479,1.146-2.4,1.516c-0.923,0.367-1.915,0.553-2.982,0.553
			c-1.059,0-2.027-0.18-2.94-0.527c-0.913-0.352-1.718-0.834-2.407-1.454c-0.69-0.623-1.242-1.362-1.644-2.216
			c-0.391-0.856-0.59-1.794-0.59-2.805v-10.906c0-0.259,0.088-0.468,0.285-0.649c0.198-0.173,0.418-0.255,0.69-0.255
			s0.5,0.082,0.696,0.255c0.184,0.182,0.284,0.391,0.284,0.649v6.473c0.687-0.699,1.513-1.309,2.479-1.826
			C240.589,118.156,241.654,117.885,242.831,117.845z M237.145,124.938c0,0.716,0.148,1.392,0.433,2.023
			c0.289,0.635,0.7,1.189,1.21,1.664c0.515,0.479,1.111,0.854,1.789,1.128c0.688,0.271,1.413,0.407,2.193,0.407
			c0.771,0,1.51-0.137,2.204-0.407c0.681-0.274,1.284-0.648,1.807-1.128c0.505-0.475,0.906-1.029,1.198-1.664
			c0.3-0.632,0.449-1.308,0.449-2.023c0-0.721-0.149-1.396-0.449-2.042c-0.292-0.641-0.693-1.203-1.198-1.675
			c-0.522-0.48-1.126-0.853-1.807-1.121c-0.694-0.271-1.434-0.413-2.204-0.413c-0.765,0-1.48,0.132-2.143,0.39
			c-0.676,0.27-1.249,0.631-1.758,1.096c-0.501,0.468-0.918,1.019-1.229,1.664C237.33,123.478,237.16,124.186,237.145,124.938z"/>
		<path d="M249.899,130.774c0-0.331,0.13-0.614,0.386-0.851c0.248-0.232,0.552-0.346,0.905-0.346c0.359,0,0.665,0.113,0.911,0.346
			c0.245,0.236,0.372,0.52,0.372,0.851c0,0.323-0.127,0.612-0.372,0.845c-0.246,0.234-0.552,0.352-0.911,0.352
			c-0.354,0-0.657-0.117-0.905-0.352C250.029,131.387,249.899,131.098,249.899,130.774z"/>
		<path d="M265.343,121.113c-0.532-0.423-1.129-0.768-1.797-1.037c-0.673-0.258-1.397-0.39-2.174-0.39
			c-0.772,0-1.499,0.142-2.187,0.413c-0.688,0.269-1.274,0.641-1.784,1.121c-0.511,0.472-0.915,1.034-1.211,1.675
			c-0.301,0.646-0.448,1.321-0.448,2.042c0,0.716,0.147,1.392,0.448,2.023c0.296,0.635,0.7,1.189,1.211,1.664
			c0.51,0.479,1.097,0.854,1.784,1.128c0.688,0.271,1.414,0.407,2.187,0.407c0.776,0,1.501-0.132,2.174-0.389
			c0.668-0.265,1.265-0.637,1.797-1.101c0.187-0.175,0.41-0.263,0.685-0.263c0.271,0,0.508,0.088,0.69,0.263
			c0.19,0.177,0.281,0.398,0.271,0.659c-0.006,0.26-0.132,0.5-0.362,0.713c-0.192,0.178-0.45,0.374-0.77,0.6
			c-0.321,0.219-0.716,0.429-1.173,0.624c-0.442,0.197-0.947,0.353-1.505,0.483c-0.553,0.12-1.158,0.189-1.808,0.189
			c-1.047,0-2.019-0.18-2.937-0.527c-0.908-0.352-1.713-0.834-2.4-1.454c-0.694-0.623-1.24-1.362-1.641-2.216
			c-0.395-0.856-0.593-1.794-0.593-2.805c0-0.969,0.198-1.882,0.574-2.729c0.396-0.845,0.931-1.578,1.612-2.22
			c0.677-0.628,1.481-1.138,2.416-1.515c0.927-0.378,1.942-0.589,3.034-0.629c0.634,0,1.211,0.076,1.741,0.222
			c0.539,0.146,1.012,0.325,1.444,0.526c0.438,0.202,0.819,0.421,1.154,0.656c0.338,0.233,0.603,0.438,0.816,0.607
			c0.123,0.1,0.237,0.283,0.329,0.543c0.101,0.268,0.021,0.504-0.206,0.714c-0.183,0.18-0.419,0.265-0.69,0.265
			C265.753,121.378,265.529,121.293,265.343,121.113z"/>
		<path d="M276.121,117.845c1,0,1.966,0.192,2.872,0.573c0.92,0.377,1.715,0.889,2.409,1.533c0.684,0.637,1.238,1.389,1.646,2.239
			c0.416,0.859,0.622,1.778,0.622,2.747c0,0.955-0.202,1.851-0.606,2.696c-0.391,0.852-0.933,1.59-1.614,2.237
			c-0.685,0.636-1.479,1.146-2.41,1.516c-0.915,0.367-1.918,0.553-2.981,0.553c-1.04,0-2.031-0.18-2.937-0.527
			c-0.911-0.352-1.722-0.834-2.406-1.454c-0.694-0.623-1.239-1.362-1.638-2.216c-0.403-0.856-0.593-1.794-0.593-2.805
			c0-0.969,0.187-1.882,0.584-2.729c0.382-0.845,0.918-1.578,1.59-2.22c0.691-0.628,1.491-1.138,2.429-1.515
			C274.021,118.096,275.03,117.885,276.121,117.845z M270.424,124.938c0,0.716,0.149,1.392,0.439,2.023
			c0.295,0.635,0.7,1.189,1.218,1.664c0.507,0.479,1.113,0.854,1.788,1.128c0.684,0.271,1.407,0.407,2.188,0.407
			c0.772,0,1.504-0.137,2.198-0.407c0.694-0.274,1.288-0.648,1.812-1.128c0.512-0.475,0.922-1.029,1.208-1.664
			c0.291-0.632,0.436-1.308,0.436-2.023c0-0.721-0.145-1.396-0.436-2.042c-0.286-0.641-0.696-1.203-1.208-1.675
			c-0.523-0.48-1.117-0.853-1.812-1.121c-0.694-0.271-1.426-0.413-2.198-0.413c-0.781,0-1.505,0.142-2.188,0.413
			c-0.675,0.269-1.281,0.641-1.788,1.121c-0.518,0.472-0.923,1.034-1.218,1.675C270.573,123.541,270.424,124.217,270.424,124.938z"
			/>
		<path d="M293.631,122.606c-0.041-0.86-0.374-1.568-0.987-2.136c-0.624-0.555-1.36-0.842-2.225-0.842
			c-0.438,0-0.858,0.075-1.239,0.228c-0.395,0.16-0.719,0.374-1.007,0.647c-0.279,0.271-0.504,0.593-0.672,0.949
			c-0.176,0.356-0.252,0.737-0.252,1.153v8.454c0,0.255-0.094,0.472-0.283,0.646c-0.196,0.169-0.42,0.264-0.691,0.264
			c-0.274,0-0.504-0.095-0.69-0.264c-0.188-0.175-0.295-0.392-0.295-0.646v-8.454c0-0.664,0.141-1.286,0.399-1.873
			c0.268-0.579,0.625-1.088,1.081-1.514c0.471-0.429,1.013-0.768,1.638-1.02c0.633-0.257,1.299-0.378,2.012-0.378
			c0.877,0,1.676,0.177,2.392,0.537c0.716,0.359,1.3,0.844,1.756,1.445c0.49-0.602,1.087-1.086,1.8-1.445
			c0.716-0.36,1.504-0.537,2.378-0.537c0.716,0,1.395,0.121,2.021,0.378c0.631,0.252,1.171,0.591,1.633,1.02
			c0.465,0.426,0.833,0.935,1.099,1.514c0.271,0.587,0.403,1.209,0.403,1.873v8.454c0,0.255-0.095,0.472-0.273,0.646
			c-0.193,0.169-0.424,0.264-0.694,0.264c-0.274,0-0.503-0.095-0.69-0.264c-0.188-0.175-0.287-0.392-0.287-0.646v-8.454
			c0-0.416-0.083-0.797-0.25-1.153c-0.169-0.356-0.4-0.678-0.691-0.949c-0.295-0.273-0.63-0.487-1.018-0.647
			c-0.392-0.152-0.798-0.228-1.252-0.228c-0.437,0-0.849,0.075-1.231,0.228c-0.387,0.16-0.731,0.374-1.005,0.647
			c-0.284,0.271-0.516,0.593-0.679,0.949c-0.17,0.356-0.252,0.737-0.252,1.153v8.454c0,0.255-0.092,0.472-0.282,0.646
			c-0.19,0.169-0.422,0.264-0.688,0.264c-0.283,0-0.51-0.095-0.7-0.264c-0.185-0.175-0.276-0.392-0.276-0.646V122.606z"/>
	</g>
</g>
</svg>
